<svg fill="none" height="24" viewBox="0 0 24 24" width="24" xmlns="http://www.w3.org/2000/svg"><g fill="#f08e79"><path d="m7.61019 10.9823c0-.9241-.74893-1.67322-1.67277-1.67322-.92385 0-1.67277.74912-1.67277 1.67322v7.3428c0 .9241.74892 1.6732 1.67277 1.6732.92384 0 1.67277-.7491 1.67277-1.6732z"/><path d="m5.93776 7.87551c1.07019 0 1.93775-.86756 1.93775-1.93775 0-1.0702-.86756-1.93776-1.93775-1.93776-1.0702 0-1.93776.86756-1.93776 1.93776 0 1.07019.86756 1.93775 1.93776 1.93775z"/><path d="m9.8135 9.30878h2.832c.0225.00009.0447.00475.0653.0137.0207.00895.0392.02199.0546.03835.0155.01635.0274.03567.0351.05678s.011.04356.0098.066c0 0-.011 1.26769 0 1.26499s.0421.0366.0668 0c.3122-.5247.7577-.95744 1.2913-1.25421.5336-.29678 1.1362-.44703 1.7467-.43549.1993-.01854.4002-.01146.5977.02105.6723-.00929 1.3306.19196 1.8828.57556.5522.38359.9705.93029 1.1964 1.56359.2808.9669.4123 1.971.3899 2.9776v5.8032h-3.3547v-5.8032s.2646-2.2454-1.7272-2.2454-1.9158 2.2454-1.9158 2.2454v5.6274c0 .0464-.0184.0908-.0512.1236s-.0773.0512-.1236.0512h-2.9959c-.04637 0-.09084-.0184-.12362-.0512-.03279-.0328-.05121-.0772-.05121-.1236v-10.34324c.00072-.04589.01946-.08965.05217-.12185.03271-.03219.07676-.05024.12266-.05023z"/></g></svg>