<svg fill="none" height="24" viewBox="0 0 24 24" width="24" xmlns="http://www.w3.org/2000/svg"><path clip-rule="evenodd" d="m12 24c6.6274 0 12-5.3726 12-12 0-6.62742-5.3726-12-12-12-6.62742 0-12 5.37258-12 12 0 6.6274 5.37258 12 12 12zm-2.80575-7.1393c.2565.2565.5925.3841.92845.3841.336 0 .6721-.1276.9286-.3841l7.1189-7.11895c.5131-.513.5131-1.344 0-1.857-.513-.513-1.3424-.513-1.8554 0l-6.1921 6.19195-2.63245-2.6325c-.513-.513-1.3425-.5115-1.8555.0016-.513.5114-.513 1.3424 0 1.8554z" fill="#2b3652" fill-rule="evenodd"/></svg>