<svg fill="none" height="25" viewBox="0 0 25 25" width="25" xmlns="http://www.w3.org/2000/svg"><path d="m19.5928 9.39679c-.4703 0-1.0933-.01041-1.8688-.01041-1.8915 0-3.4468-1.56563-3.4468-3.475v-3.35c0-.26354-.2114-.47813-.4724-.47813h-5.50843c-2.57117 0-4.65037 2.11042-4.65037 4.69688v11.22397c0 2.7135 2.17821 4.9125 4.86489 4.9125h8.20341c2.5629 0 4.64-2.0969 4.64-4.6854v-8.36566c0-.26458-.2104-.47812-.4723-.47708-.4404.00313-.9685.00833-1.2892.00833z" fill="#2b3652"/><path d="m16.7546 2.6741c-.3114-.32396-.8552-.10104-.8552.34792v2.74687c0 1.15208.9479 2.1 2.1 2.1.7271.00833 1.7354.01042 2.5917.00833.4385-.00104.6614-.525.3573-.84166-1.099-1.14271-3.0667-3.19063-4.1938-4.36146z" fill="#2b3652"/><path d="m15.7351 13.2384c-.3042-.301-.7938-.3031-1.0979.0021l-1.6552 1.6635v-5.0281c0-.42813-.3479-.77605-.7761-.77605-.4281 0-.776.34792-.776.77605v5.0281l-1.65627-1.6635c-.30312-.3052-.79375-.3031-1.09687-.0021-.30417.3021-.30417.7927-.00313 1.0969l2.98227 2.9958c.0709.0708.1563.1281.2511.1677.0937.0386.1958.0594.2989.0594.1042 0 .2063-.0208.3-.0604.0927-.0386.1771-.0959.2479-.1657l.0021-.001 2.9813-2.9958c.3021-.3042.3021-.7948-.0021-1.0969z" fill="#fff"/></svg>