<svg fill="none" height="24" viewBox="0 0 24 24" width="24" xmlns="http://www.w3.org/2000/svg"><path d="m22 12v.1055c-.0156 1.4258-1.3125 2.3945-2.7383 2.3945h-3.8242c-1.0352 0-1.875.8398-1.875 1.875 0 .1328.0156.2617.0391.3867.082.3985.2539.7813.4218 1.168.2383.539.4727 1.0742.4727 1.6406 0 1.2422-.8438 2.3711-2.0859 2.4219-.1368.0039-.2735.0078-.4141.0078-5.51954 0-9.9961-4.4766-9.9961-10 0-5.52344 4.47656-10 10-10 5.5234 0 10 4.47656 10 10zm-15 1.25c0-.3315-.1317-.6495-.36612-.8839s-.55236-.3661-.88388-.3661-.64946.1317-.88388.3661-.36612.5524-.36612.8839.1317.6495.36612.8839.55236.3661.88388.3661.64946-.1317.88388-.3661.36612-.5524.36612-.8839zm0-3.75c.33152 0 .64946-.1317.88388-.36612s.36612-.55236.36612-.88388-.1317-.64946-.36612-.88388-.55236-.36612-.88388-.36612-.64946.1317-.88388.36612-.36612.55236-.36612.88388.1317.64946.36612.88388.55236.36612.88388.36612zm6.25-3.75c0-.33152-.1317-.64946-.3661-.88388s-.5524-.36612-.8839-.36612-.6495.1317-.8839.36612-.3661.55236-.3661.88388.1317.64946.3661.88388.5524.36612.8839.36612.6495-.1317.8839-.36612.3661-.55236.3661-.88388zm3.75 3.75c.3315 0 .6495-.1317.8839-.36612s.3661-.55236.3661-.88388-.1317-.64946-.3661-.88388-.5524-.36612-.8839-.36612-.6495.1317-.8839.36612-.3661.55236-.3661.88388.1317.64946.3661.88388.5524.36612.8839.36612z" fill="#2b3652"/></svg>