<svg width="32" height="32" viewBox="0 0 32 32" fill="none" xmlns="http://www.w3.org/2000/svg">
<path opacity="0.4" d="M13.9234 20.2878H6.79992C5.89835 20.2878 5.1665 21.0069 5.1665 21.8926C5.1665 22.7772 5.89835 23.4974 6.79992 23.4974H13.9234C14.825 23.4974 15.5568 22.7772 15.5568 21.8926C15.5568 21.0069 14.825 20.2878 13.9234 20.2878Z" fill="#2B3652"/>
<path opacity="0.4" d="M26.833 9.91023C26.833 9.02565 26.1011 8.30664 25.2007 8.30664H18.0773C17.1757 8.30664 16.4438 9.02565 16.4438 9.91023C16.4438 10.796 17.1757 11.515 18.0773 11.515H25.2007C26.1011 11.515 26.833 10.796 26.833 9.91023Z" fill="#2B3652"/>
<path d="M12.6174 9.91011C12.6174 11.9323 10.9503 13.5714 8.89195 13.5714C6.83483 13.5714 5.1665 11.9323 5.1665 9.91011C5.1665 7.88907 6.83483 6.25 8.89195 6.25C10.9503 6.25 12.6174 7.88907 12.6174 9.91011Z" fill="#2B3652"/>
<path d="M26.8332 21.849C26.8332 23.8701 25.1661 25.5091 23.1078 25.5091C21.0506 25.5091 19.3823 23.8701 19.3823 21.849C19.3823 19.8268 21.0506 18.1877 23.1078 18.1877C25.1661 18.1877 26.8332 19.8268 26.8332 21.849Z" fill="#2B3652"/>
</svg>
