<?xml version="1.0" standalone="no"?>
<!DOCTYPE svg PUBLIC "-//W3C//DTD SVG 20010904//EN"
 "http://www.w3.org/TR/2001/REC-SVG-20010904/DTD/svg10.dtd">
<svg version="1.0" xmlns="http://www.w3.org/2000/svg"
 width="260.000000pt" height="260.000000pt" viewBox="0 0 260.000000 260.000000"
 preserveAspectRatio="xMidYMid meet">
<metadata>
Created by potrace 1.14, written by Peter Selinger 2001-2017
</metadata>
<g transform="translate(0.000000,260.000000) scale(0.100000,-0.100000)"
fill="#000000" stroke="none">
<path d="M682 1888 c-9 -9 -12 -120 -12 -440 l0 -428 25 -12 c19 -8 31 -8 50
0 l25 12 1 297 1 298 137 -280 c76 -154 145 -286 154 -294 10 -7 27 -11 40 -7
19 4 47 54 150 268 70 145 127 271 127 280 0 10 -11 25 -25 34 -43 28 -62 4
-164 -210 -52 -108 -97 -196 -100 -196 -3 0 -77 147 -165 328 -87 180 -165
335 -174 345 -17 20 -53 22 -70 5z"/>
<path d="M1506 1884 c-14 -14 -16 -67 -16 -440 l0 -424 25 -12 c19 -8 31 -8
50 0 l25 12 0 428 c0 320 -3 431 -12 440 -17 17 -54 15 -72 -4z"/>
<path d="M1741 1886 c-7 -8 -11 -30 -9 -48 l3 -33 135 -6 c86 -4 148 -12 171
-21 99 -43 108 -162 15 -211 -34 -18 -62 -22 -171 -25 -71 -2 -136 -9 -142
-14 -7 -6 -13 -25 -13 -43 0 -18 6 -37 13 -43 6 -5 77 -12 157 -14 165 -5 211
-18 260 -74 25 -29 30 -43 30 -85 0 -73 -21 -106 -88 -137 -52 -24 -70 -27
-210 -30 -136 -4 -153 -6 -162 -23 -16 -28 -2 -68 26 -75 13 -3 90 -4 172 -2
135 3 152 6 207 31 71 33 98 57 133 117 22 37 27 57 27 115 0 89 -32 149 -105
198 l-50 34 21 19 c38 34 61 93 61 155 0 106 -63 180 -183 213 -74 21 -281 22
-298 2z"/>
</g>
</svg>
