<svg fill="none" height="32" viewBox="0 0 32 32" width="32" xmlns="http://www.w3.org/2000/svg"><g fill="#9fb1dc"><path d="m21.434 2.66675h4.5146c1.8697 0 3.3847 1.5278 3.3847 3.41328v4.55277c0 1.8855-1.515 3.4133-3.3847 3.4133h-4.5146c-1.8697 0-3.3847-1.5278-3.3847-3.4133v-4.55277c0-1.88548 1.515-3.41328 3.3847-3.41328z" opacity=".4"/><path d="m10.5658 17.9541c1.8697 0 3.3847 1.5278 3.3847 3.4133v4.5527c0 1.8842-1.515 3.4133-3.3847 3.4133h-4.5146c-1.86969 0-3.3847-1.5291-3.3847-3.4133v-4.5527c0-1.8855 1.51501-3.4133 3.3847-3.4133zm15.3827 0c1.8697 0 3.3847 1.5278 3.3847 3.4133v4.5527c0 1.8842-1.515 3.4133-3.3847 3.4133h-4.5146c-1.8697 0-3.3847-1.5291-3.3847-3.4133v-4.5527c0-1.8855 1.515-3.4133 3.3847-3.4133zm-15.3827-15.28735c1.8697 0 3.3847 1.5278 3.3847 3.41328v4.55277c0 1.8855-1.515 3.4133-3.3847 3.4133h-4.5146c-1.86969 0-3.3847-1.5278-3.3847-3.4133v-4.55277c0-1.88548 1.51501-3.41328 3.3847-3.41328z"/></g></svg>