<svg fill="none" height="120" viewBox="0 0 330 120" width="330" xmlns="http://www.w3.org/2000/svg" xmlns:xlink="http://www.w3.org/1999/xlink"><clipPath id="a"><path d="m0 0h330v120h-330z"/></clipPath><mask id="b" height="120" maskUnits="userSpaceOnUse" width="330" x="0" y="0"><path d="m330 0h-330v120h330z" fill="#fff"/></mask><g clip-path="url(#a)"><g mask="url(#b)"><g fill="#f5f5f5"><path d="m193.651 92.755c-.294.0012-.586-.0559-.859-.1681-.272-.1121-.519-.2771-.728-.4853-.208-.2083-.373-.4557-.485-.728s-.169-.5641-.168-.8586v-61.782c-.005-.2951.05-.5882.162-.8611.112-.273.28-.52.491-.7259.206-.2115.453-.3786.726-.4909s.566-.1675.861-.1621h7.75c.295-.0054.588.0498.861.1621s.52.2794.726.4909c.211.2059.379.4529.491.7259.112.2729.167.566.162.8611v61.782c.001.2945-.056.5863-.168.8586s-.277.5197-.485.728c-.209.2082-.456.3732-.728.4853-.273.1122-.565.1693-.859.1681zm21.092 0c-.294.0012-.586-.0559-.859-.1681-.272-.1121-.519-.2771-.728-.4853-.208-.2083-.373-.4557-.485-.728s-.169-.5641-.168-.8586v-44.05c-.005-.2948.05-.5875.163-.8601.112-.2725.279-.5193.49-.7249.206-.2115.453-.3786.726-.4909s.566-.1675.861-.1621h7.746c.303-.0143.606.0366.887.1493.282.1126.536.2844.746.5037.402.4292.62.9989.607 1.587v44.05c.013.5881-.205 1.1578-.607 1.587-.21.2193-.464.3911-.746.5037-.281.1127-.584.1636-.887.1493zm-.373-56.555c-.295.0054-.588-.0498-.861-.1621s-.52-.2794-.726-.4909c-.211-.2059-.379-.4529-.491-.7259-.112-.2729-.167-.566-.162-.8611v-6.72c-.005-.2951.05-.5882.162-.8611.112-.273.28-.52.491-.7259.206-.2115.453-.3786.726-.4909s.566-.1675.861-.1621h8.493c.31-.0114.619.0406.907.1529.289.1123.552.2825.773.5001.211.2059.379.4529.491.7259.112.2729.167.566.162.8611v6.719c.005.2951-.05.5882-.162.8611-.112.273-.28.52-.491.7259-.221.2176-.484.3878-.773.5001-.288.1123-.597.1643-.907.1529zm21.277 56.555c-.294.0012-.586-.0559-.859-.1681-.272-.1121-.519-.2771-.728-.4853-.208-.2083-.373-.4557-.485-.728s-.169-.5641-.168-.8586v-44.05c-.005-.2948.051-.5876.163-.8602s.28-.5192.491-.7248c.206-.2115.453-.3786.726-.4909s.566-.1675.861-.1621h7.653c.295-.0054.588.0498.861.1621s.52.2794.726.4909c.211.2059.379.4529.491.7259.112.2729.167.566.162.8611v3.824c1.87-2.3035 4.254-4.1365 6.961-5.3522 2.706-1.2156 5.66-1.78 8.624-1.6478 3.472-.0847 6.899.8045 9.892 2.567 2.817 1.7313 5.069 4.2443 6.483 7.233 1.609 3.5093 2.391 7.3409 2.286 11.2v26.224c.001.2945-.056.5863-.168.8586s-.277.5197-.485.728c-.209.2082-.456.3732-.728.4853-.273.1122-.565.1693-.859.1681h-8.209c-.294.0012-.586-.0559-.859-.1681-.272-.1121-.519-.2771-.728-.4853-.208-.2083-.373-.4557-.485-.728s-.169-.5641-.168-.8586v-25.665c0-3.6087-.887-6.4397-2.66-8.493s-4.34-3.08-7.7-3.08c-1.436-.066-2.869.1745-4.205.7056-1.335.5311-2.543 1.3405-3.541 2.3744-1.927 2.0533-2.891 4.8843-2.891 8.493v25.665c.001.2945-.056.5863-.168.8586s-.277.5197-.485.728c-.209.2082-.456.3732-.728.4853-.273.1122-.565.1693-.859.1681zm71.3.933c-6.906 0-12.381-1.991-16.425-5.973s-6.221-9.6437-6.532-16.985c-.062-.622-.093-1.4153-.093-2.38-.009-.7631.022-1.5261.093-2.286.12-4.2552 1.222-8.4251 3.22-12.184 1.822-3.3156 4.56-6.0368 7.886-7.839 3.654-1.9058 7.732-2.8531 11.852-2.753 4.439-.1517 8.833.9319 12.693 3.13 3.393 2.0518 6.092 5.0754 7.746 8.679 1.811 4.0311 2.704 8.4145 2.614 12.833v1.96c.005.2951-.05.5882-.162.8611-.112.273-.279.52-.491.7259-.221.2176-.484.3878-.773.5001-.288.1123-.597.1643-.907.1529h-30.985v.75c.039 2.0679.466 4.11 1.26 6.02.723 1.7659 1.918 3.2993 3.453 4.433 1.588 1.1403 3.506 1.7302 5.46 1.68 2.673.1014 5.281-.835 7.279-2.613.582-.5074 1.114-1.07 1.587-1.68.347-.5438.809-1.0055 1.353-1.353.492-.1806 1.016-.2599 1.54-.233h8.026c.567-.0205 1.119.1804 1.54.56.195.1725.344.3908.433.6352.09.2444.117.5072.08.7648-.194 1.3249-.724 2.578-1.54 3.64-1.146 1.6171-2.549 3.0358-4.153 4.2-2.055 1.4963-4.34 2.6468-6.766 3.406-3.003.945-6.14 1.4001-9.288 1.348zm-10.266-29.4h20.625v-.28c.046-2.1922-.367-4.3698-1.213-6.393-.736-1.7475-1.969-3.2403-3.546-4.293-1.694-1.008-3.629-1.5401-5.6-1.5401s-3.906.5321-5.6 1.5401c-1.572 1.0464-2.792 2.5425-3.5 4.293-.815 2.0309-1.212 4.2052-1.167 6.393z"/><path d="m26.598 92.755c-3.253.1035-6.4839-.5683-9.426-1.96-2.4975-1.2518-4.5023-3.3059-5.693-5.833-1.3373-3.0394-1.97533-6.3402-1.86699-9.659v-21.185h-7.372c-.29511.0054-.58818-.0498-.86113-.1621s-.519992-.2794-.725868-.4909c-.218221-.2213-.388753-.485-.501066-.7748-.1123132-.2899-.1640224-.5996-.15193451-.9102v-5.315c-.00508468-.2948.05022761-.5875.16253051-.8601.112303-.2725.279219-.5193.49047-.7249.205705-.2119.452668-.3793.725628-.4919.27296-.1127.56612-.1682.86137-.1631h7.373v-15.492c-.01318-.5881.20475-1.1578.60699-1.587.2097-.2193.4639-.3911.7456-.5037.2818-.1127.5844-.1636.8874-.1493h7.559c.2951-.0054.5882.0498.8611.1621.273.1123.52.2794.7259.4909.2115.2059.3786.4529.4909.7259.1123.2729.1675.566.1621.8611v15.492h11.668c.2951-.0054.5882.0498.8611.1621.273.1123.52.2794.7259.4909.2115.2059.3786.4529.4909.7259.1123.2729.1675.566.1621.8611v5.315c.0114.3097-.0406.6186-.1529.9075s-.2825.5518-.5001.7725c-.2059.2115-.4529.3786-.7259.4909-.2729.1123-.566.1675-.8611.1621h-11.668v20.256c-.1141 2.0782.3545 4.1469 1.353 5.973.902 1.4307 2.473 2.146 4.713 2.146h6.439c.2945-.0013.5864.0557.8588.1678s.5198.2771.7281.4853c.2082.2083.3732.4558.4853.7281.1121.2724.1691.5643.1678.8588v5.786c.0012.2945-.0559.5863-.1681.8586-.1121.2723-.2771.5197-.4853.728-.2083.2082-.4557.3732-.728.4853-.2723.1122-.5641.1693-.8586.1681zm14.745 0c-.2945.0012-.5863-.0559-.8586-.1681-.2723-.1121-.5197-.2771-.728-.4853-.2082-.2083-.3732-.4557-.4853-.728-.1122-.2723-.1693-.5641-.1681-.8586v-44.05c-.0049-.2948.0505-.5876.163-.8602s.2796-.5192.491-.7248c.2059-.2115.4529-.3786.7259-.4909.2729-.1123.566-.1675.8611-.1621h7.746c.3026-.0138.6046.0373.8858.1499.2811.1126.5349.2842.7442.5031.4023.4292.6202.9989.607 1.587v44.05c.0132.5881-.2047 1.1578-.607 1.587-.2096.2193-.4639.3911-.7456.5037-.2817.1127-.5843.1636-.8874.1493zm-.373-56.556c-.2951.0054-.5882-.0498-.8611-.1621-.273-.1123-.52-.2794-.7259-.4909-.2115-.2059-.3785-.4529-.4909-.7259-.1123-.2729-.1674-.566-.1621-.8611v-6.719c-.0053-.2951.0498-.5882.1621-.8611.1124-.273.2794-.52.4909-.7259.2059-.2115.4529-.3786.7259-.4909.2729-.1123.566-.1675.8611-.1621h8.493c.3098-.0114.6186.0406.9075.1529s.5518.2825.7725.5001c.2115.2059.3786.4529.4909.7259.1123.2729.1675.566.1621.8611v6.719c.0054.2951-.0498.5882-.1621.8611-.1123.273-.2794.52-.4909.7259-.2207.2176-.4836.3878-.7725.5001s-.5977.1643-.9075.1529zm21.278 56.556c-.2945.0012-.5863-.0559-.8586-.1681-.2723-.1121-.5197-.2771-.728-.4853-.2082-.2083-.3732-.4557-.4853-.728-.1122-.2723-.1693-.5641-.1681-.8586v-44.05c-.0049-.2948.0505-.5876.163-.8602s.2796-.5192.491-.7248c.2059-.2115.4529-.3786.7259-.4909.2729-.1123.566-.1675.8611-.1621h7.279c.2951-.0054.5882.0498.8611.1621.273.1123.52.2794.7259.4909.2115.2059.3786.4529.4909.7259.1123.2729.1675.566.1621.8611v3.171c1.4196-1.8382 3.2175-3.3499 5.272-4.433 2.434-1.2695 5.1409-1.9261 7.886-1.913 7.0927-.1247 12.039 2.644 14.839 8.306 1.479-2.5363 3.626-4.6185 6.206-6.02 2.751-1.5356 5.856-2.3238 9.006-2.286 3.085-.0382 6.126.7342 8.819 2.24 2.719 1.573 4.899 3.9316 6.253 6.766 1.643 3.5804 2.426 7.4952 2.286 11.432v26.785c.001.2945-.056.5863-.168.8586s-.277.5197-.485.728c-.209.2082-.456.3732-.728.4853-.273.1122-.565.1693-.859.1681h-7.653c-.294.0012-.586-.0559-.859-.1681-.272-.1121-.519-.2771-.728-.4853-.208-.2083-.373-.4557-.485-.728s-.169-.5641-.168-.8586v-26.035c.099-2.287-.315-4.5673-1.213-6.673-.667-1.4989-1.817-2.7311-3.266-3.5-1.422-.6967-2.988-1.0485-4.572-1.027-1.43.0153-2.837.3671-4.106 1.027-1.463.7804-2.64 2.0063-3.36 3.5-.963 2.0877-1.412 4.3761-1.307 6.673v26.035c.001.2945-.056.5863-.168.8586s-.277.5197-.485.728c-.209.2082-.456.3732-.728.4853-.273.1122-.564.1693-.859.1681h-7.652c-.2945.0012-.5863-.0559-.8586-.1681-.2723-.1121-.5197-.2771-.728-.4853-.2082-.2083-.3732-.4557-.4853-.728s-.1693-.5641-.1681-.8586v-26.035c.1045-2.2969-.3437-4.5853-1.307-6.673-.7201-1.4937-1.8969-2.7196-3.36-3.5-1.3608-.6827-2.8636-1.0345-4.386-1.027-1.4667.0088-2.9088.3773-4.2 1.073-1.4496.7981-2.6217 2.019-3.36 3.5-.9665 2.0703-1.4144 4.3448-1.305 6.627v26.035c.0012.2945-.0559.5863-.1681.8586-.1121.2723-.2771.5197-.4853.728-.2083.2082-.4557.3732-.728.4853-.2723.1122-.5641.1693-.8586.1681z"/><path d="m161.656 94.12c-4.964-.0112-9.817-1.4657-13.969-4.1864-4.151-2.7206-7.422-6.5899-9.414-11.1366s-2.618-9.5745-1.803-14.4708c.816-4.8964 3.037-9.4499 6.394-13.1061 3.358-3.6561 7.706-6.2569 12.515-7.4856s9.872-1.0323 14.572.5654c4.699 1.5977 8.833 4.5277 11.897 8.433 3.064 3.9052 4.926 8.6173 5.359 13.5621h-11.446c-.583-3.5468-2.483-6.7432-5.319-8.9513-2.837-2.2081-6.401-3.2654-9.983-2.961-3.581.3044-6.917 1.9481-9.34 4.6031-2.423 2.6551-3.756 6.1261-3.732 9.7206.023 3.5944 1.401 7.0479 3.859 9.6711 2.457 2.6233 5.813 4.2234 9.399 4.4811 3.585.2577 7.135-.846 9.943-3.0908 2.807-2.2448 4.665-5.4657 5.202-9.0198h11.417c-.565 6.3851-3.502 12.3267-8.232 16.6531s-10.909 6.7236-17.319 6.7189z"/></g><path d="m172.284 66.13c-1.7-5.889-5.786-8.916-10.672-8.916-2.554.0525-5.018.9592-6.996 2.5752-1.979 1.6161-3.36 3.8484-3.922 6.3408z" fill="#dbc772"/></g></g></svg>