<svg fill="none" height="120" viewBox="0 0 120 120" width="120" xmlns="http://www.w3.org/2000/svg" xmlns:xlink="http://www.w3.org/1999/xlink"><linearGradient id="a" gradientUnits="userSpaceOnUse" x1="59.9981" x2="59.9981" y1="-.000061" y2="120"><stop offset="0" stop-color="#6781ea"/><stop offset="1" stop-color="#3a4da0"/></linearGradient><clipPath id="b"><path d="m0 0h120v120h-120z"/></clipPath><mask id="c" height="120" maskUnits="userSpaceOnUse" width="120" x="0" y="0"><path d="m120 0h-120v120h120z" fill="#fff"/></mask><g clip-path="url(#b)"><g mask="url(#c)"><path d="m23.4383-.00003541h73.125c6.2157 0 23.4377.00003887 23.4377.00003887v23.43749654 73.125 23.4375s-17.222 0-23.4377 0h-73.125c-6.216 0-23.43632911 0-23.43632911 0s-.00119829-17.222-.00119829-23.4375v-73.125c0-6.216-.0007726-23.43756104-.0007726-23.43756104s17.2223.00002563 23.4383.00002563z" fill="url(#a)"/><path d="m60.0746 99.844c-2.702.0006-5.3972-.2706-8.0449-.8095-5.1049-1.0434-9.9547-3.0804-14.2735-5.9951-6.4155-4.3209-11.4394-10.4104-14.4625-17.5301-1.0209-2.4101-1.8001-4.9155-2.3265-7.4794-1.0813-5.2986-1.0813-10.7611 0-16.0598 1.0463-5.0976 3.0873-9.9389 6.0064-14.247 3.9102-5.779 9.2654-10.4336 15.5328-13.5008s13.2286-4.4401 20.1912-3.982c6.9626.458 13.684 2.7309 19.4956 6.5926 5.8116 3.8618 10.5108 9.1778 13.6304 15.4193 2.2295 4.4647 3.5936 9.3111 4.0202 14.2833h-17.8188c-.4218-2.5892-1.3029-5.0822-2.6016-7.3615-2.4265-4.2709-6.2003-7.6169-10.7309-9.5148-4.5306-1.8978-9.5625-2.2403-14.3085-.974-4.746 1.2664-8.9384 4.0702-11.9213 7.9728-2.9829 3.9027-4.5881 8.684-4.5644 13.596s1.6749 9.6776 4.6954 13.5512c3.0204 3.8737 7.2397 6.6369 11.9977 7.8574s9.7864.8294 14.2984-1.112c4.5121-1.9415 8.2534-5.3238 10.6386-9.6179 1.29-2.316 2.1512-4.8459 2.542-7.4679h17.7734c-.6403 7.4252-3.3616 14.5193-7.8516 20.4677-4.4076 5.852-10.3378 10.3811-17.1436 13.0931-2.3105.9186-4.702 1.6185-7.1432 2.0907-2.5147.4843-5.0699.728-7.6308.7277z" fill="#fff"/><path d="m76.6141 56.2791c-2.6484-9.1641-9.0051-13.8767-16.6089-13.8767-7.6039 0-15.3469 5.7216-16.9915 13.8767z" fill="#dbc772"/></g></g></svg>