<svg height="70.076" viewBox="0 0 209.64 70.076" width="209.64" xmlns="http://www.w3.org/2000/svg"><path d="m192.945 0h-176.245c-.642 0-1.277 0-1.918 0-.536 0-1.068.014-1.61.022a23.151 23.151 0 0 0 -3.511.31 11.677 11.677 0 0 0 -3.33 1.1 11.278 11.278 0 0 0 -2.831 2.068 10.964 10.964 0 0 0 -2.064 2.84 11.565 11.565 0 0 0 -1.096 3.333 22.762 22.762 0 0 0 -.313 3.507c-.017.538-.018 1.077-.027 1.614v40.494c.009.544.01 1.071.027 1.615a22.762 22.762 0 0 0 .313 3.507 11.541 11.541 0 0 0 1.095 3.336 10.875 10.875 0 0 0 2.065 2.828 10.992 10.992 0 0 0 2.836 2.065 11.739 11.739 0 0 0 3.33 1.105 23.571 23.571 0 0 0 3.511.31c.541.012 1.074.019 1.61.019h1.918 176.24 1.9c.534 0 1.081-.007 1.615-.019a23.263 23.263 0 0 0 3.5-.31 11.921 11.921 0 0 0 3.343-1.105 11 11 0 0 0 2.833-2.065 11.2 11.2 0 0 0 2.07-2.828 11.57 11.57 0 0 0 1.085-3.336 23.66 23.66 0 0 0 .325-3.507c.007-.544.007-1.071.007-1.615.014-.636.014-1.269.014-1.916v-36.666c0-.642 0-1.278-.014-1.913 0-.537 0-1.076-.007-1.613a23.663 23.663 0 0 0 -.325-3.507 11.594 11.594 0 0 0 -1.085-3.334 11.328 11.328 0 0 0 -4.9-4.9 11.856 11.856 0 0 0 -3.343-1.1 22.851 22.851 0 0 0 -3.5-.31c-.534-.009-1.081-.019-1.615-.022-.63 0-1.269 0-1.9 0z" fill="#a6a6a6"/><path d="m14.138 67.885c-.534 0-1.055-.007-1.584-.019a22.228 22.228 0 0 1 -3.275-.286 10.308 10.308 0 0 1 -2.9-.96 9.47 9.47 0 0 1 -2.45-1.78 9.322 9.322 0 0 1 -1.788-2.447 10.024 10.024 0 0 1 -.951-2.9 21.747 21.747 0 0 1 -.29-3.288c-.011-.369-.026-1.6-.026-1.6v-40.469s.014-1.212.026-1.567a21.671 21.671 0 0 1 .29-3.28 10.083 10.083 0 0 1 .952-2.912 9.414 9.414 0 0 1 1.777-2.449 9.75 9.75 0 0 1 2.457-1.791 10.2 10.2 0 0 1 2.9-.953 22.049 22.049 0 0 1 3.282-.284l1.581-.025h180.04l1.6.022a21.7 21.7 0 0 1 3.256.285 10.4 10.4 0 0 1 2.927.96 9.8 9.8 0 0 1 4.231 4.239 10.1 10.1 0 0 1 .938 2.889 22.769 22.769 0 0 1 .3 3.306c.005.5.005 1.029.005 1.559.014.657.014 1.282.014 1.913v36.665c0 .636 0 1.258-.014 1.884 0 .57 0 1.092-.007 1.629a22.3 22.3 0 0 1 -.3 3.247 10.054 10.054 0 0 1 -.946 2.926 9.6 9.6 0 0 1 -1.779 2.428 9.483 9.483 0 0 1 -2.452 1.791 10.269 10.269 0 0 1 -2.922.963 21.973 21.973 0 0 1 -3.275.286c-.513.012-1.05.019-1.572.019h-1.9z" transform="translate(.656 .658)"/><g fill="#fff"><path d="m35.9 25.058a8.67 8.67 0 0 1 4.128-7.274 8.875 8.875 0 0 0 -6.997-3.784c-2.942-.309-5.794 1.76-7.293 1.76-1.528 0-3.836-1.73-6.322-1.679a9.312 9.312 0 0 0 -7.836 4.779c-3.388 5.866-.861 14.487 2.385 19.229 1.624 2.322 3.522 4.915 6 4.824 2.43-.1 3.338-1.55 6.271-1.55 2.906 0 3.757 1.55 6.291 1.491 2.607-.042 4.25-2.332 5.817-4.676a19.2 19.2 0 0 0 2.66-5.418 8.378 8.378 0 0 1 -5.104-7.702z" transform="translate(7.497 10.506)"/><path d="m24.478 14.835a8.536 8.536 0 0 0 1.953-6.115 8.685 8.685 0 0 0 -5.619 2.907 8.122 8.122 0 0 0 -2 5.889 7.181 7.181 0 0 0 5.666-2.681z" transform="translate(14.129 6.557)"/><path d="m48.223 33.953h-8.292l-1.991 5.88h-3.513l7.854-21.755h3.649l7.854 21.755h-3.571zm-7.433-2.713h6.573l-3.24-9.54h-.091z" transform="translate(25.886 13.593)"/><path d="m61.572 29.446c0 4.929-2.638 8.1-6.619 8.1a5.377 5.377 0 0 1 -4.991-2.775h-.075v7.856h-3.256v-21.112h3.151v2.638h.06a5.626 5.626 0 0 1 5.05-2.8c4.027-.004 6.68 3.178 6.68 8.093zm-3.346 0c0-3.211-1.66-5.322-4.192-5.322-2.488 0-4.161 2.156-4.161 5.322 0 3.2 1.673 5.336 4.161 5.336 2.532 0 4.192-2.095 4.192-5.336z" transform="translate(35.062 16.05)"/><path d="m71.537 29.446c0 4.929-2.638 8.1-6.619 8.1a5.377 5.377 0 0 1 -4.991-2.775h-.075v7.856h-3.252v-21.112h3.151v2.638h.06a5.626 5.626 0 0 1 5.05-2.8c4.022-.004 6.676 3.178 6.676 8.093zm-3.346 0c0-3.211-1.66-5.322-4.192-5.322-2.488 0-4.161 2.156-4.161 5.322 0 3.2 1.673 5.336 4.161 5.336 2.532 0 4.192-2.1 4.192-5.336z" transform="translate(42.555 16.05)"/><path d="m73.141 33.927c.241 2.157 2.337 3.574 5.2 3.574 2.744 0 4.718-1.417 4.718-3.362 0-1.689-1.191-2.7-4.01-3.393l-2.819-.679c-3.995-.965-5.849-2.833-5.849-5.865 0-3.754 3.271-6.332 7.916-6.332 4.6 0 7.748 2.578 7.854 6.332h-3.286c-.2-2.171-1.991-3.482-4.614-3.482s-4.417 1.326-4.417 3.256c0 1.538 1.146 2.443 3.95 3.136l2.4.589c4.464 1.056 6.318 2.849 6.318 6.031 0 4.07-3.242 6.619-8.4 6.619-4.825 0-8.082-2.489-8.292-6.424z" transform="translate(52.489 13.437)"/><path d="m85.74 19.3v3.754h3.016v2.578h-3.016v8.744c0 1.358.6 1.991 1.93 1.991a10.171 10.171 0 0 0 1.071-.075v2.563a8.941 8.941 0 0 1 -1.808.151c-3.211 0-4.464-1.206-4.464-4.282v-9.092h-2.306v-2.579h2.306v-3.753z" transform="translate(60.274 14.511)"/><path d="m86.065 29.458c0-4.991 2.939-8.126 7.523-8.126 4.6 0 7.524 3.136 7.524 8.126s-2.91 8.126-7.524 8.126-7.523-3.122-7.523-8.126zm11.73 0c0-3.423-1.569-5.444-4.207-5.444s-4.205 2.036-4.205 5.444c0 3.437 1.567 5.442 4.205 5.442s4.207-2.005 4.207-5.442z" transform="translate(64.712 16.039)"/><path d="m96.186 21.515h3.105v2.7h.075a3.783 3.783 0 0 1 3.815-2.866 5.021 5.021 0 0 1 1.115.121v3.045a4.551 4.551 0 0 0 -1.463-.2 3.281 3.281 0 0 0 -3.393 3.649v9.408h-3.254z" transform="translate(72.322 16.05)"/><path d="m115.525 32.729c-.438 2.879-3.242 4.855-6.83 4.855-4.614 0-7.478-3.091-7.478-8.051 0-4.975 2.879-8.2 7.341-8.2 4.388 0 7.148 3.014 7.148 7.824v1.113h-11.206v.2a4.131 4.131 0 0 0 4.267 4.493 3.588 3.588 0 0 0 3.663-2.231zm-11.006-4.734h7.93a3.814 3.814 0 0 0 -3.89-4.026 4.015 4.015 0 0 0 -4.039 4.026z" transform="translate(76.105 16.039)"/><path d="m39.447 8.736a4.624 4.624 0 0 1 4.919 5.194c0 3.34-1.8 5.259-4.919 5.259h-3.776v-10.453zm-2.152 8.975h1.971a3.286 3.286 0 0 0 3.447-3.76 3.3 3.3 0 0 0 -3.447-3.738h-1.971z" transform="translate(26.821 6.56)"/><path d="m41.688 14.2a3.737 3.737 0 1 1 7.44 0 3.738 3.738 0 1 1 -7.44 0zm5.839 0c0-1.71-.768-2.71-2.116-2.71s-2.115 1-2.115 2.71.761 2.716 2.115 2.716 2.116-1 2.116-2.716z" transform="translate(31.332 7.6)"/><path d="m55.336 18.084h-1.615l-1.63-5.81h-.123l-1.624 5.81h-1.6l-2.174-7.889h1.579l1.413 6.02h.116l1.622-6.02h1.494l1.622 6.02h.123l1.406-6.02h1.555z" transform="translate(35.016 7.666)"/><path d="m53.854 10.264h1.5v1.253h.116a2.362 2.362 0 0 1 2.354-1.405 2.566 2.566 0 0 1 2.731 2.934v5.107h-1.555v-4.717c0-1.268-.551-1.9-1.7-1.9a1.81 1.81 0 0 0 -1.884 2v4.615h-1.562z" transform="translate(40.493 7.597)"/><path d="m59.094 8.437h1.557v10.968h-1.557z" transform="translate(44.433 6.344)"/><path d="m61.225 14.2a3.738 3.738 0 1 1 7.441 0 3.738 3.738 0 1 1 -7.441 0zm5.839 0c0-1.71-.768-2.71-2.116-2.71s-2.115 1-2.115 2.71.761 2.716 2.115 2.716 2.116-1 2.116-2.716z" transform="translate(46.022 7.6)"/><path d="m66.4 15.918c0-1.42 1.057-2.239 2.934-2.355l2.137-.123v-.681c0-.833-.551-1.3-1.615-1.3-.869 0-1.471.319-1.644.877h-1.507c.159-1.355 1.434-2.224 3.223-2.224 1.978 0 3.093.985 3.093 2.651v5.39h-1.5v-1.113h-.121a2.654 2.654 0 0 1 -2.37 1.239 2.383 2.383 0 0 1 -2.63-2.361zm5.071-.674v-.66l-1.926.123c-1.086.073-1.579.442-1.579 1.138s.616 1.123 1.463 1.123a1.86 1.86 0 0 0 2.043-1.725z" transform="translate(49.927 7.6)"/><path d="m71.348 15.457c0-2.493 1.281-4.072 3.275-4.072a2.6 2.6 0 0 1 2.419 1.384h.116v-4.332h1.557v10.968h-1.492v-1.246h-.123a2.738 2.738 0 0 1 -2.477 1.376c-2.007 0-3.275-1.579-3.275-4.078zm1.608 0c0 1.673.789 2.68 2.108 2.68s2.123-1.021 2.123-2.673-.82-2.68-2.123-2.68-2.108 1.014-2.108 2.673z" transform="translate(53.647 6.344)"/><path d="m79.238 14.2a3.737 3.737 0 1 1 7.44 0 3.738 3.738 0 1 1 -7.44 0zm5.839 0c0-1.71-.768-2.71-2.116-2.71s-2.115 1-2.115 2.71.761 2.716 2.115 2.716 2.116-.998 2.116-2.716z" transform="translate(59.566 7.6)"/><path d="m84.669 10.264h1.5v1.253h.116a2.362 2.362 0 0 1 2.354-1.405 2.566 2.566 0 0 1 2.731 2.934v5.107h-1.558v-4.717c0-1.268-.551-1.9-1.7-1.9a1.81 1.81 0 0 0 -1.884 2v4.615h-1.559z" transform="translate(63.663 7.597)"/><path d="m94.722 9.074v2h1.709v1.311h-1.709v4.056c0 .826.34 1.188 1.115 1.188a5.2 5.2 0 0 0 .594-.036v1.3a5.107 5.107 0 0 1 -.847.08c-1.731 0-2.421-.609-2.421-2.13v-4.458h-1.252v-1.311h1.252v-2z" transform="translate(69.108 6.823)"/><path d="m95.7 8.437h1.543v4.347h.123a2.427 2.427 0 0 1 2.405-1.413 2.6 2.6 0 0 1 2.717 2.941v5.093h-1.558v-4.705c0-1.26-.587-1.9-1.687-1.9a1.843 1.843 0 0 0 -1.986 2v4.607h-1.557z" transform="translate(71.961 6.344)"/><path d="m107.807 16.019a3.2 3.2 0 0 1 -3.418 2.282 3.583 3.583 0 0 1 -3.644-4.072 3.638 3.638 0 0 1 3.637-4.121c2.2 0 3.519 1.5 3.519 3.977v.543h-5.57v.087a2.085 2.085 0 0 0 2.1 2.26 1.891 1.891 0 0 0 1.877-.956zm-5.476-2.542h3.985a1.9 1.9 0 0 0 -1.942-2.044 2.017 2.017 0 0 0 -2.043 2.044z" transform="translate(75.725 7.6)"/></g></svg>