<svg fill="none" height="70" viewBox="0 0 349 70" width="349" xmlns="http://www.w3.org/2000/svg" xmlns:xlink="http://www.w3.org/1999/xlink"><clipPath id="a"><path d="m4 17h340v35.8621h-340z"/></clipPath><g clip-path="url(#a)"><path d="m32.0496 35.6274c1.226.0007 2.4457-.1724 3.6224-.5139v-4.5873c-1.5935.7396-3.3776.9751-5.1104.6746-1.7329-.3005-3.3308-1.1225-4.5772-2.3545l3.0717-3.0489c-2.8069-2.7933-6.1423-5.0085-9.8145-6.5182-3.6722-1.5098-7.6088-2.2843-11.58359-2.2792-1.22266.0003-2.4442.0735-3.65801.2193v4.3387c3.9803-.5647 8.0384-.201 11.8524 1.0621 3.8141 1.2632 7.2791 3.391 10.1204 6.2149l.0114.011-3.0542 3.0317c-2.4447-2.4246-5.4395-4.2321-8.7332-5.271-3.2938-1.0388-6.7904-1.2787-10.1968-.6996v4.3806c2.82287-.6082 5.75452-.5017 8.525.3098 2.7705.8114 5.2908 2.3017 7.3288 4.3336l-.1286.1274-2.9481 2.9262c-1.6411-1.6279-3.6938-2.7866-5.9423-3.3543-2.24847-.5677-4.60954-.5234-6.8348.1282v4.5919c1.59505-.7497 3.38474-.9911 5.12351-.6911 1.73879.3 3.34139 1.1267 4.58809 2.3666l-.1415.1416-2.9184 2.8971c2.8069 2.7932 6.1422 5.0083 9.8143 6.5181 3.6721 1.5097 7.6085 2.2843 11.5831 2.2793 1.2108-.0003 2.4204-.0725 3.6224-.2162v-4.3382c-3.9784.5601-8.0335.194-11.8447-1.0695-3.8113-1.2635-7.2741-3.3898-10.1148-6.2106l.1427-.1416 2.9243-2.9025c2.0031 1.9936 4.3833 3.5746 7.004 4.6522 2.6206 1.0777 5.43 1.6307 8.2666 1.6272 1.2139-.0001 2.4256-.1013 3.6224-.3025v-4.3793c-2.818.6021-5.7431.4919-8.507-.3204-2.7638-.8122-5.2778-2.3006-7.3112-4.3285l3.076-3.0543c1.1963 1.1905 2.6178 2.1347 4.1829 2.7781 1.5651.6435 3.2429.9736 4.9369.9714z" fill="#00e8d1"/><g fill="#0d2b3a"><path d="m22.9297 31.8778c.8768.8705 1.8751 1.6115 2.9642 2.2001l3.2672-3.2429c-1.1947-.4203-2.2799-1.0998-3.1768-1.9888z" opacity=".25"/><path d="m13.7131 41.0276-3.0608 3.0371c.866.8592 1.7834 1.6659 2.7472 2.4155l3.0872-3.0645c-.98-.7302-1.9069-1.5282-2.7736-2.3881z" opacity=".25"/><path d="m19.8533 34.9312-3.076 3.0531c.8682.8615 1.8085 1.6484 2.8107 2.3522l3.1305-3.1069c-1.0341-.6636-1.9945-1.4341-2.8652-2.2984z" opacity=".25"/><path d="m210.187 26.7639c-.707-.3206-1.479-.474-2.256-.4484-1.956 0-3.611.8959-4.965 2.6878l-.225.224-.226-.224-.452-2.2397h-4.061v21.0538h4.513v-12.2736c.043-1.2775.595-2.4858 1.535-3.3599.449-.4472.984-.8004 1.573-1.0389s1.22-.3574 1.857-.3496h1.584z"/><path d="m75.8546 26.7639v21.0538h-4.0619l-.4513-1.792-.2256-.2242-.2256.2242c-1.5058 1.4934-3.4615 2.24-5.8672 2.2397-1.423.0266-2.8367-.2337-4.1555-.765-1.3187-.5314-2.5152-1.3228-3.5169-2.3264-2.1061-2.0609-3.1592-4.6889-3.1592-7.8839s1.0528-5.8228 3.1585-7.8834c1.0017-1.0036 2.1982-1.795 3.5169-2.3263 1.3188-.5314 2.7325-.7916 4.1555-.7651 2.4068 0 4.3625.7466 5.8672 2.2397l.2256.2242.2256-.2242.4517-1.7915zm-5.9123 15.4544c1.2339-1.3442 1.8969-3.1096 1.8504-4.9275.0467-1.8182-.6163-3.584-1.8504-4.9285-.5876-.6545-1.312-1.174-2.1226-1.5222-.8107-.3482-1.6881-.5167-2.5711-.4937-2.0763 0-3.6936.657-4.8517 1.9711-1.1582 1.3141-1.7373 2.9716-1.7375 4.9724 0 2.0008.5792 3.6581 1.7375 4.9721 1.1583 1.3139 2.7755 1.971 4.8517 1.9711.8829.0232 1.7603-.1451 2.5709-.4931.8107-.348 1.5351-.8673 2.1228-1.5217z"/><path d="m85.7392 26.7639h-4.4228v21.054h4.4228z"/><path d="m125.167 26.7639h-4.423v21.054h4.423z"/><path d="m147.326 29.8997 1.128-1.3451c.624-.7151 1.414-1.2686 2.302-1.6127.91-.4002 1.892-.6134 2.888-.627 2.437 0 4.325.6944 5.664 2.083 1.339 1.3887 2.008 3.2328 2.008 5.5324v13.8865h-4.513v-13.4377c0-2.6878-1.203-4.0317-3.61-4.0317-.636-.0076-1.268.1114-1.857.35-.589.2385-1.123.5917-1.573 1.0387-.939.8742-1.491 2.0824-1.534 3.3597v12.722h-4.514v-13.4387c0-2.6878-1.203-4.0317-3.61-4.0317-.637-.0077-1.268.1113-1.857.3498s-1.124.5918-1.573 1.0389c-.94.8742-1.492 2.0824-1.535 3.3597v12.722h-4.513v-21.0538h4.063l.452 1.7916.226.2242.225-.2242c.54-.7253 1.275-1.2844 2.121-1.6127.894-.4029 1.862-.6164 2.844-.627 3.248 0 5.504 1.1946 6.768 3.5838z"/><path d="m184.784 38.4106h-15.344c-.019.765.117 1.5261.4 2.238.283.7118.707 1.36 1.248 1.9058 1.097 1.12 2.579 1.6799 4.445 1.6797 1.168.0339 2.32-.2694 3.318-.8731.87-.5265 1.544-1.3209 1.918-2.2624l3.791 1.7918c-2.076 3.5837-5.16 5.3755-9.252 5.3757-1.376.0223-2.741-.2413-4.008-.7736-1.267-.5324-2.407-1.3219-3.349-2.3178-2.016-2.0609-3.024-4.6888-3.023-7.8838 0-3.2251.985-5.8606 2.956-7.9066s4.445-3.0685 7.424-3.0678c1.32-.0202 2.63.2367 3.843.754s2.303 1.2833 3.197 2.2477c1.925 2.0004 2.888 4.5833 2.888 7.7487zm-9.477-8.0633c-2.949 0-4.829 1.3738-5.641 4.1215h10.831c-.06-.5769-.239-1.1352-.526-1.6401s-.677-.9454-1.144-1.2941c-.997-.7927-2.243-1.2129-3.52-1.1873z"/><path d="m230.947 38.4106h-15.345c-.019.765.117 1.5261.4 2.238.283.7118.707 1.36 1.248 1.9058 1.098 1.12 2.58 1.6799 4.446 1.6797 1.167.0339 2.32-.2694 3.317-.8731.871-.5266 1.544-1.321 1.918-2.2624l3.791 1.7918c-2.076 3.5837-5.16 5.3755-9.252 5.3757-1.376.0223-2.741-.2413-4.008-.7736-1.266-.5324-2.407-1.3219-3.348-2.3178-2.017-2.0609-3.024-4.6888-3.024-7.8838 0-3.2251.985-5.8606 2.956-7.9066s4.445-3.0685 7.424-3.0678c1.32-.0202 2.63.2367 3.843.754s2.303 1.2833 3.197 2.2477c1.925 2.001 2.888 4.5842 2.888 7.7496zm-9.478-8.0633c-2.949 0-4.83 1.3738-5.642 4.1215h10.832c-.06-.5769-.239-1.1352-.526-1.6401-.288-.5049-.677-.9455-1.144-1.2941-.997-.7927-2.243-1.2129-3.52-1.1873z"/><path d="m240.424 41.7702 4.062-11.8699h4.513l4.062 11.8699 3.656-15.0063h4.468l-5.867 21.0538h-4.288l-4.288-12.1396-4.288 12.1396h-4.286l-5.867-21.0538h4.468z"/><path d="m284.201 26.7639v21.0538h-4.062l-.452-1.7916-.226-.2242-.225.2242c-1.506 1.4935-3.462 2.24-5.868 2.2397-1.423.0267-2.836-.2336-4.155-.7649-1.319-.5314-2.515-1.3228-3.517-2.3264-2.106-2.0609-3.159-4.6889-3.159-7.8839 0-3.1951 1.053-5.8231 3.159-7.8842 1.002-1.0035 2.198-1.7949 3.517-2.3263 1.319-.5313 2.732-.7916 4.155-.765 2.407 0 4.363.7465 5.868 2.2397l.225.2242.226-.2242.452-1.7916zm-5.913 15.4544c1.234-1.3442 1.897-3.1096 1.851-4.9275.046-1.8178-.617-3.5832-1.851-4.9275-.587-.6546-1.312-1.1741-2.122-1.5223-.811-.3482-1.688-.5167-2.571-.4937-2.077 0-3.694.657-4.852 1.9711s-1.737 2.9716-1.738 4.9724c0 2.0008.58 3.6582 1.738 4.9721 1.159 1.314 2.776 1.971 4.852 1.9712.883.023 1.76-.1455 2.571-.4936.81-.3482 1.535-.8676 2.122-1.5222z"/><path d="m324.368 17.8047v30.013h-4.061l-.452-1.7915-.226-.2242-.225.2242c-1.505 1.4934-3.461 2.24-5.868 2.2397-1.423.0266-2.836-.2337-4.155-.765-1.319-.5314-2.515-1.3228-3.517-2.3264-2.106-2.0609-3.159-4.6889-3.159-7.8839s1.053-5.8231 3.159-7.8841c1.002-1.0036 2.198-1.795 3.517-2.3263 1.319-.5314 2.732-.7917 4.155-.7651 2.407 0 4.363.7466 5.868 2.2397l.225.2242.226-.2242v-10.7501zm-5.912 24.4137c1.234-1.3443 1.897-3.1097 1.851-4.9276.046-1.8178-.617-3.5832-1.851-4.9275-.587-.6545-1.312-1.174-2.122-1.5222-.811-.3482-1.688-.5167-2.571-.4938-2.077 0-3.694.6571-4.852 1.9712s-1.737 2.9715-1.738 4.9723c0 2.0008.58 3.6582 1.738 4.9722 1.158 1.3139 2.775 1.971 4.852 1.9711.883.023 1.76-.1455 2.571-.4936.81-.3482 1.535-.8676 2.122-1.5221z"/><path d="m341.766 46.3619c-1.49 1.2696-3.303 1.9042-5.438 1.9039-2.136-.0003-3.949-.5678-5.438-1.7024-1.488-1.1307-2.52-2.7508-2.911-4.5691l4.061-1.5678c.091 1.0759.591 2.0772 1.399 2.7997.785.7214 1.819 1.1145 2.889 1.0975 1.083 0 1.918-.2464 2.504-.7391.277-.2159.5-.4916.652-.806.153-.3145.231-.6595.228-1.0084 0-1.2242-.903-1.9856-2.708-2.2843-.602-.1193-1.354-.2836-2.256-.493-1.866-.4773-3.348-1.2612-4.446-2.3518-.539-.5282-.963-1.1604-1.247-1.8576-.283-.6973-.42-1.4447-.401-2.1963-.027-.8864.165-1.766.558-2.5622.393-.7963.976-1.4852 1.699-2.0069 1.488-1.1297 3.317-1.7294 5.19-1.7024 1.868-.03 3.687.5876 5.145 1.7463.711.5427 1.301 1.2242 1.736 2.0024.435.7781.704 1.6365.792 2.5221h-4.514c-.002-.3286-.086-.6515-.243-.9404-.158-.289-.384-.5352-.66-.7172-.67-.4382-1.454-.6718-2.257-.6718-.802 0-1.586.2336-2.256.6718-.276.1819-.503.4281-.66.7171-.158.289-.241.6119-.244.9405 0 1.2541.903 2.0604 2.708 2.4188l2.257.4483c1.865.4184 3.347 1.1499 4.446 2.1947 1.099 1.0447 1.648 2.4185 1.647 4.1211.001 1.7926-.743 3.3234-2.232 4.5925z"/><path d="m96.1637 29.0036-.2257.224-.2256-.224-.4517-2.2397h-4.0615v21.0538h4.5132v-12.2739c.0431-1.2774.5949-2.4857 1.5344-3.3599.4493-.4471.9842-.8003 1.5733-1.0388s1.2199-.3574 1.8569-.3497h.451v-4.0315c-2.4406 0-4.2078 1.4702-4.8845 2.1389-.0266.034-.0537.0661-.0798.1008z"/><path d="m85.7392 20.1646h-4.4228v4.3899h4.4228z"/><path d="m125.167 20.1646h-4.423v4.3899h4.423z"/><path d="m113.93 43.786c-.307.0139-.613-.0346-.9-.1424s-.549-.2727-.77-.4846c-.211-.2118-.375-.4641-.484-.7415-.109-.2773-.159-.5738-.148-.8712v-10.7508h4.558v-4.0315h-4.557v-6.5994h-.858l-3.566 3.5397v3.0606h-2.918v4.0306h2.918v10.7508c0 2.0314.595 3.5843 1.783 4.6588 1.189 1.0745 2.912 1.612 5.168 1.6127l2.482-.4484v-4.031z"/><path d="m301.803 26.7639c-.707-.3206-1.48-.474-2.256-.4484-1.957 0-3.612.8959-4.965 2.6878l-.226.224-.225-.224-.452-2.2397h-4.062v21.0538h4.513v-12.2736c.043-1.2775.595-2.4858 1.535-3.3599.449-.4472.984-.8004 1.573-1.0389s1.221-.3574 1.857-.3496h1.584z"/></g></g></svg>