<svg fill="none" height="70" viewBox="0 0 332 70" width="332" xmlns="http://www.w3.org/2000/svg" xmlns:xlink="http://www.w3.org/1999/xlink"><linearGradient id="a" gradientUnits="userSpaceOnUse" x1=".407227" x2="70.4072" y1="11" y2="58"><stop offset="0" stop-color="#02d0f7"/><stop offset="1" stop-color="#1b9cff"/></linearGradient><g fill="#112857"><path d="m89.9499 46.7337c.4523-.402 1.1558-.402 1.608.0503 1.1558 1.2562 3.6181 3.3668 7.2865 3.3668 2.6636 0 5.6786-1.1558 5.6786-3.2663 0-2.2613-1.96-3.4171-5.9801-4.2211-5.6282-1.1558-9.6483-3.3669-9.6483-8.3418 0-3.8191 3.8191-7.5879 9.6985-7.5879 4.3719 0 7.4369 2.0101 8.8439 3.1658.503.402.553 1.2061.101 1.6583l-1.558 1.6081c-.402.402-1.055.4522-1.507.1005-1.056-.8543-3.116-2.2111-5.8296-2.2111-3.3669 0-5.0252 1.6583-5.0252 3.3668 0 2.0101 2.0603 3.0654 6.3818 3.9699 5.025 1.1055 9.297 2.9648 9.297 8.3417 0 5.0754-5.377 7.6884-10.4526 7.6884-5.5779 0-9.1458-3.1155-10.5528-4.6733-.402-.4523-.402-1.1558.0502-1.6081z"/><path d="m138.996 40.8041c0 .5025 0 .9045-.05 1.5577h-21.256c.301 3.9699 4.12 7.6885 9.045 7.6885 3.618 0 6.03-1.8593 7.186-3.0151.452-.4523 1.155-.4523 1.608 0l1.457 1.5075c.452.4523.402 1.1558 0 1.5578-1.457 1.4573-4.975 4.3719-10.201 4.3719-7.99 0-13.719-6.0302-13.719-13.8693 0-7.6885 5.227-13.8694 13.166-13.8694 7.287.0503 12.764 5.5779 12.764 14.0704zm-4.673-2.4121c-.151-2.9648-2.865-7.1357-8.141-7.1357-5.678 0-8.04 4.3719-8.392 7.1357z"/><path d="m166.985 36.8844v15.7789c0 .6031-.502 1.1056-1.105 1.1056h-2.513c-.603 0-1.105-.5025-1.105-1.1056v-14.9748c0-4.5227-2.814-6.4322-6.332-6.4322-4.271 0-6.533 4.4221-6.533 4.4221v16.9849c0 .6031-.502 1.1056-1.105 1.1056h-2.513c-.603 0-1.105-.5025-1.105-1.1056v-24.0703c0-.603.502-1.1055 1.105-1.1055h2.211c.603 0 1.106.5025 1.106 1.1055v2.5628s2.412-4.3719 8.09-4.3719c5.126 0 9.799 3.6181 9.799 10.1005z"/><path d="m193.719 30.7538v-16.2815c0-.603.503-1.1055 1.106-1.1055h2.512c.603 0 1.106.5025 1.106 1.1055v38.2413c0 .603-.503 1.1055-1.106 1.1055h-2.11c-.603 0-1.106-.5025-1.106-1.1055v-2.7136s-2.563 4.5226-8.894 4.5226c-7.136 0-12.764-6.0804-12.764-13.8693 0-7.789 5.628-13.8694 12.764-13.8694 5.779 0 8.492 3.9699 8.492 3.9699zm0 5.0753s-2.512-4.5728-7.739-4.5728c-5.226 0-8.743 4.2211-8.743 9.397 0 5.1758 3.367 9.3969 8.743 9.3969 5.227 0 7.739-4.5728 7.739-4.5728z"/><path d="m228.091 50.2512c-1.357 1.3568-4.523 3.9699-9.246 4.2212-7.789.4522-14.272-5.8794-14.372-13.6684-.05-7.7387 5.779-13.9698 13.568-13.9698 4.874 0 8.191 2.4623 9.648 3.8191.503.4522.452 1.206 0 1.6583l-1.608 1.407c-.402.402-1.055.402-1.508 0-1.055-.9548-3.266-2.4623-6.532-2.4623-5.277 0-8.794 4.2211-8.794 9.397 0 5.1758 3.467 9.3969 8.794 9.3969 3.517 0 5.829-1.7587 6.934-2.9145.453-.4523 1.156-.4523 1.609 0l1.457 1.5075c.502.4523.502 1.1558.05 1.608z"/><path d="m234.773 13.3166h2.513c.603 0 1.105.5025 1.105 1.1055v38.2412c0 .603-.502 1.1056-1.105 1.1056h-2.513c-.603 0-1.105-.5026-1.105-1.1056v-38.1909c-.051-.6533.452-1.1558 1.105-1.1558z"/><path d="m271.558 40.6533c0 7.7387-5.83 13.8693-13.568 13.8693-7.739 0-13.568-6.0804-13.568-13.8693 0-7.789 5.829-13.8694 13.568-13.8694 7.738 0 13.568 6.1307 13.568 13.8694zm-4.774 0c0-5.1759-3.468-9.397-8.794-9.397-5.277 0-8.794 4.2211-8.794 9.397s3.467 9.397 8.794 9.397c5.326 0 8.794-4.2211 8.794-9.397z"/><path d="m277.035 44.4221v-15.8291c0-.6031.503-1.1056 1.106-1.1056h2.512c.603 0 1.106.5025 1.106 1.1056v15.0251c0 4.5226 2.814 6.4321 6.331 6.4321 4.423 0 6.533-4.3216 6.533-4.3216v-17.0854c0-.603.503-1.1055 1.106-1.1055h2.512c.603 0 1.106.5025 1.106 1.1055v24.0704c0 .603-.503 1.1055-1.106 1.1055h-2.211c-.603 0-1.105-.5025-1.105-1.1055v-2.9649s-2.412 4.7236-8.091 4.7236c-5.125.0503-9.799-3.5678-9.799-10.0502z"/><path d="m326.282 30.7538v-16.2815c0-.603.502-1.1055 1.105-1.1055h2.513c.603 0 1.105.5025 1.105 1.1055v38.2413c0 .603-.502 1.1055-1.105 1.1055h-2.111c-.603 0-1.105-.5025-1.105-1.1055v-2.7136s-2.563 4.5226-8.895 4.5226c-7.135 0-12.764-6.0804-12.764-13.8693 0-7.789 5.629-13.8694 12.764-13.8694 5.829 0 8.493 3.9699 8.493 3.9699zm0 5.0753s-2.513-4.5728-7.739-4.5728-8.744 4.2211-8.744 9.397c0 5.1758 3.367 9.3969 8.744 9.3969 5.226 0 7.739-4.5728 7.739-4.5728z"/></g><path d="m69.9497 42.5126c0-8.2412-6.2814-15.0754-14.3216-15.9297-1.1557-4.1708-3.618-7.8894-6.9346-10.7035-3.8191-3.1658-8.7438-4.9246-13.7186-4.9246-4.9749 0-9.8995 1.7588-13.7186 4.9246-3.3669 2.7638-5.7789 6.5327-6.9347 10.7035-8.04019.8543-14.3216 7.6885-14.3216 15.9297 0 .804.100503 6.4321 4.32161 10.7537 3.21608 3.3166 7.88949 4.9749 13.81909 4.9749 5.7286 0 11.407-1.005 16.8342-2.9648 1.7085.603 3.4673 1.1558 5.2261 1.5578 3.8191.9045 7.6884 1.407 11.608 1.407 5.9799 0 10.6533-1.6583 13.8191-4.9749 4.2211-4.2713 4.3216-9.8492 4.3216-10.7537zm-4.3718.0502c0 .0503.0502 4.4724-3.1156 7.6885-2.3618 2.412-5.9296 3.618-10.6533 3.618-7.9899 0-14.4723-2.1608-18.4924-3.9698-3.7689-1.7085-6.1809-3.4673-6.7839-3.9196-.0503-.0503-.1005-.1005-.1508-.1508 0-.0502-.0502-.1005-.0502-.201v-9.0954c0-.1508.1005-.3015.2512-.402l8.191-4.2212c.1507-.0502.3015-.0502.402 0l8.1909 4.2212c.1508.1005.2513.2512.2513.402v9.1457c0 .1507-.0503.2512-.1005.3015-.402.3518-1.8091 1.3568-4.0201 2.5628 1.809.5528 3.8693 1.005 6.0804 1.3568.5025-.3518.7538-.5528.804-.603l.0503-.0503c.7537-.6532 1.608-1.9598 1.608-3.6181v-9.0954c0-1.8091-1.005-3.4674-2.6131-4.3216l-8.1909-4.2212c-1.4071-.7035-3.0151-.7035-4.4221 0l-8.2412 4.2212c-1.6081.8542-2.6131 2.4623-2.6131 4.3216v9.1457c0 1.6583.8543 2.9648 1.608 3.6181l.0503.0502c.1005.1005 1.9598 1.5578 5.2261 3.3166-3.4673.8543-7.0854 1.3066-10.7035 1.3066-4.7236 0-8.29145-1.2061-10.65326-3.6181-3.16583-3.2161-3.11558-7.6885-3.11558-7.7387v-.0503c0-6.4321 5.22613-11.6583 11.65834-11.6583h1.809l.3518-1.7588c.7537-3.8191 2.814-7.3367 5.8291-9.8492 3.0653-2.5126 6.9347-3.9196 10.9045-3.9196 3.9699 0 7.8895 1.407 10.9045 3.9196 3.0151 2.5125 5.0754 5.9799 5.8292 9.8492l.3518 1.7588h1.809c6.4322 0 11.6583 5.2262 11.6583 11.6583z" fill="url(#a)"/></svg>