<svg width="349" height="70" viewBox="0 0 349 70" fill="none" xmlns="http://www.w3.org/2000/svg">
<path d="M98.5436 46.7336C98.9959 46.3316 99.6994 46.3316 100.152 46.7839C101.307 48.0402 103.77 50.1507 107.438 50.1507C110.101 50.1507 113.117 48.9949 113.117 46.8844C113.117 44.6231 111.157 43.4673 107.137 42.6633C101.508 41.5075 97.4884 39.2965 97.4884 34.3216C97.4884 30.5025 101.307 26.7336 107.187 26.7336C111.559 26.7336 114.624 28.7437 116.031 29.8995C116.534 30.3015 116.584 31.1055 116.132 31.5578L114.574 33.1658C114.172 33.5678 113.519 33.6181 113.066 33.2663C112.011 32.412 109.951 31.0552 107.237 31.0552C103.87 31.0552 102.212 32.7135 102.212 34.4221C102.212 36.4321 104.272 37.4874 108.594 38.3919C113.619 39.4975 117.89 41.3568 117.89 46.7336C117.89 51.809 112.513 54.4221 107.438 54.4221C101.86 54.4221 98.2924 51.3065 96.8853 49.7487C96.4833 49.2965 96.4833 48.5929 96.9356 48.1407L98.5436 46.7336Z" fill="white"/>
<path d="M147.59 40.804C147.59 41.3065 147.59 41.7085 147.54 42.3618H126.283C126.585 46.3316 130.404 50.0502 135.328 50.0502C138.947 50.0502 141.359 48.1909 142.514 47.0351C142.967 46.5829 143.67 46.5829 144.122 47.0351L145.58 48.5427C146.032 48.9949 145.982 49.6985 145.58 50.1005C144.122 51.5578 140.605 54.4723 135.379 54.4723C127.389 54.4723 121.66 48.4422 121.66 40.603C121.66 32.9145 126.886 26.7336 134.826 26.7336C142.112 26.7839 147.59 32.3115 147.59 40.804ZM142.916 38.3919C142.766 35.4271 140.052 31.2563 134.776 31.2563C129.097 31.2563 126.736 35.6281 126.384 38.3919H142.916Z" fill="white"/>
<path d="M175.579 36.8844V52.6633C175.579 53.2664 175.077 53.7689 174.474 53.7689H171.961C171.358 53.7689 170.856 53.2664 170.856 52.6633V37.6885C170.856 33.1658 168.041 31.2563 164.524 31.2563C160.252 31.2563 157.991 35.6784 157.991 35.6784V52.6633C157.991 53.2664 157.489 53.7689 156.886 53.7689H154.373C153.77 53.7689 153.268 53.2664 153.268 52.6633V28.593C153.268 27.99 153.77 27.4875 154.373 27.4875H156.584C157.187 27.4875 157.69 27.99 157.69 28.593V31.1558C157.69 31.1558 160.102 26.7839 165.78 26.7839C170.906 26.7839 175.579 30.402 175.579 36.8844Z" fill="white"/>
<path d="M202.313 30.7538V14.4723C202.313 13.8693 202.815 13.3668 203.418 13.3668H205.931C206.534 13.3668 207.037 13.8693 207.037 14.4723V52.7136C207.037 53.3166 206.534 53.8191 205.931 53.8191H203.82C203.217 53.8191 202.715 53.3166 202.715 52.7136V50C202.715 50 200.152 54.5226 193.82 54.5226C186.685 54.5226 181.057 48.4422 181.057 40.6533C181.057 32.8643 186.685 26.7839 193.82 26.7839C199.599 26.7839 202.313 30.7538 202.313 30.7538ZM202.313 35.8291C202.313 35.8291 199.8 31.2563 194.574 31.2563C189.348 31.2563 185.831 35.4774 185.831 40.6533C185.831 45.8291 189.197 50.0502 194.574 50.0502C199.8 50.0502 202.313 45.4774 202.313 45.4774V35.8291Z" fill="white"/>
<path d="M236.685 50.2512C235.328 51.608 232.162 54.2211 227.439 54.4724C219.65 54.9246 213.167 48.593 213.067 40.804C213.016 33.0653 218.846 26.8342 226.635 26.8342C231.509 26.8342 234.826 29.2965 236.283 30.6533C236.785 31.1055 236.735 31.8593 236.283 32.3116L234.675 33.7186C234.273 34.1206 233.619 34.1206 233.167 33.7186C232.112 32.7638 229.901 31.2563 226.635 31.2563C221.358 31.2563 217.841 35.4774 217.841 40.6533C217.841 45.8291 221.308 50.0502 226.635 50.0502C230.152 50.0502 232.464 48.2915 233.569 47.1357C234.021 46.6834 234.725 46.6834 235.177 47.1357L236.635 48.6432C237.137 49.0955 237.137 49.799 236.685 50.2512Z" fill="white"/>
<path d="M243.367 13.3166H245.879C246.482 13.3166 246.985 13.8191 246.985 14.4221V52.6633C246.985 53.2663 246.482 53.7689 245.879 53.7689H243.367C242.764 53.7689 242.261 53.2663 242.261 52.6633V14.4724C242.211 13.8191 242.714 13.3166 243.367 13.3166Z" fill="white"/>
<path d="M280.151 40.6533C280.151 48.392 274.322 54.5226 266.583 54.5226C258.845 54.5226 253.016 48.4422 253.016 40.6533C253.016 32.8643 258.845 26.7839 266.583 26.7839C274.322 26.7839 280.151 32.9146 280.151 40.6533ZM275.377 40.6533C275.377 35.4774 271.91 31.2563 266.583 31.2563C261.307 31.2563 257.789 35.4774 257.789 40.6533C257.789 45.8292 261.257 50.0503 266.583 50.0503C271.91 50.0503 275.377 45.8292 275.377 40.6533Z" fill="white"/>
<path d="M285.629 44.4221V28.593C285.629 27.9899 286.131 27.4874 286.734 27.4874H289.247C289.85 27.4874 290.353 27.9899 290.353 28.593V43.6181C290.353 48.1407 293.167 50.0502 296.684 50.0502C301.106 50.0502 303.217 45.7286 303.217 45.7286V28.6432C303.217 28.0402 303.719 27.5377 304.322 27.5377H306.835C307.438 27.5377 307.94 28.0402 307.94 28.6432V52.7136C307.94 53.3166 307.438 53.8191 306.835 53.8191H304.624C304.021 53.8191 303.518 53.3166 303.518 52.7136V49.7487C303.518 49.7487 301.106 54.4723 295.428 54.4723C290.302 54.5226 285.629 50.9045 285.629 44.4221Z" fill="white"/>
<path d="M334.875 30.7538V14.4723C334.875 13.8693 335.378 13.3668 335.981 13.3668H338.494C339.097 13.3668 339.599 13.8693 339.599 14.4723V52.7136C339.599 53.3166 339.097 53.8191 338.494 53.8191H336.383C335.78 53.8191 335.277 53.3166 335.277 52.7136V50C335.277 50 332.715 54.5226 326.383 54.5226C319.247 54.5226 313.619 48.4422 313.619 40.6533C313.619 32.8643 319.247 26.7839 326.383 26.7839C332.212 26.7839 334.875 30.7538 334.875 30.7538ZM334.875 35.8291C334.875 35.8291 332.363 31.2563 327.137 31.2563C321.911 31.2563 318.393 35.4774 318.393 40.6533C318.393 45.8291 321.76 50.0502 327.137 50.0502C332.363 50.0502 334.875 45.4774 334.875 45.4774V35.8291Z" fill="white"/>
<path d="M78.5435 42.5126C78.5435 34.2714 72.2621 27.4372 64.2219 26.5829C63.0661 22.4121 60.6038 18.6935 57.2872 15.8794C53.4681 12.7136 48.5435 10.9548 43.5686 10.9548C38.5938 10.9548 33.6691 12.7136 29.85 15.8794C26.4832 18.6432 24.0711 22.4121 22.9154 26.5829C14.8752 27.4372 8.59375 34.2714 8.59375 42.5126C8.59375 43.3166 8.69425 48.9447 12.9154 53.2663C16.1314 56.5829 20.8048 58.2412 26.7345 58.2412C32.4631 58.2412 38.1415 57.2362 43.5686 55.2764C45.2772 55.8794 47.036 56.4322 48.7948 56.8342C52.6139 57.7387 56.4832 58.2412 60.4028 58.2412C66.3827 58.2412 71.0561 56.5829 74.2219 53.2663C78.443 48.995 78.5435 43.4171 78.5435 42.5126ZM74.1716 42.5628C74.1716 42.6131 74.2219 47.0352 71.0561 50.2513C68.6943 52.6633 65.1264 53.8693 60.4028 53.8693C52.4128 53.8693 45.9304 51.7085 41.9103 49.8995C38.1415 48.191 35.7294 46.4322 35.1264 45.9799C35.0762 45.9296 35.0259 45.8794 34.9757 45.8291C34.9757 45.7789 34.9254 45.7286 34.9254 45.6281V36.5327C34.9254 36.3819 35.0259 36.2312 35.1767 36.1307L43.3676 31.9095C43.5184 31.8593 43.6691 31.8593 43.7696 31.9095L51.9606 36.1307C52.1113 36.2312 52.2118 36.3819 52.2118 36.5327V45.6784C52.2118 45.8291 52.1616 45.9296 52.1113 45.9799C51.7093 46.3317 50.3023 47.3367 48.0912 48.5427C49.9003 49.0955 51.9606 49.5477 54.1716 49.8995C54.6742 49.5477 54.9254 49.3467 54.9757 49.2965L55.0259 49.2462C55.7797 48.593 56.634 47.2864 56.634 45.6281V36.5327C56.634 34.7236 55.6289 33.0653 54.0209 32.2111L45.8299 27.9899C44.4229 27.2864 42.8149 27.2864 41.4078 27.9899L33.1666 32.2111C31.5586 33.0653 30.5535 34.6734 30.5535 36.5327V45.6784C30.5535 47.3367 31.4078 48.6432 32.1616 49.2965L32.2118 49.3467C32.3123 49.4472 34.1716 50.9045 37.438 52.6633C33.9706 53.5176 30.3525 53.9699 26.7345 53.9699C22.0108 53.9699 18.443 52.7638 16.0812 50.3518C12.9154 47.1357 12.9656 42.6633 12.9656 42.6131V42.5628C12.9656 36.1307 18.1917 30.9045 24.6239 30.9045H26.4329L26.7847 29.1457C27.5385 25.3266 29.5988 21.809 32.6139 19.2965C35.6792 16.7839 39.5485 15.3769 43.5184 15.3769C47.4882 15.3769 51.4078 16.7839 54.4229 19.2965C57.438 21.809 59.4983 25.2764 60.252 29.1457L60.6038 30.9045H62.4128C68.845 30.9045 74.0711 36.1307 74.0711 42.5628C74.1716 42.5628 74.1716 42.5628 74.1716 42.5628Z" fill="url(#paint0_linear_264_3635)"/>
<defs>
<linearGradient id="paint0_linear_264_3635" x1="9.00098" y1="11" x2="79.001" y2="58" gradientUnits="userSpaceOnUse">
<stop stop-color="#02D0F7"/>
<stop offset="1" stop-color="#1B9CFF"/>
</linearGradient>
</defs>
</svg>
