<svg fill="none" height="120" viewBox="0 0 120 120" width="120" xmlns="http://www.w3.org/2000/svg" xmlns:xlink="http://www.w3.org/1999/xlink"><clipPath id="a"><path d="m15 26h90v68.7328h-90z"/></clipPath><path d="m0 0h120v120h-120z" fill="#54426a"/><g clip-path="url(#a)" fill="#fff"><path d="m49.7343 41.4287c.4635-.7528 4.273 1.1482 7.0951 7.7233s3.4269 10.1661 4.4159 18.3081c.989 8.1419.5403 9.8812-.4598 14.26-1.0001 4.3787-6.4198 11.4607-12.4821 12.3041-6.0624.8435-12.0413-8.1464-17.199-15.4709s-2.4333-8.8676-3.7436-12.6831c-1.3102-3.8155-2.8037-3.4116-3.3132-5.4596-.5094-2.048-.0365-4.2348-.5071-7.5772-.4706-3.3423-1.5515-2.872-1.6282-5.219s.9405-4.4938 1.3207-4.1686c.3803.3253-.5719 1.614 0 3.6075.572 1.9935 1.2881 2.3932 2.016 5.5124.7279 3.1191.303 4.9879.8956 6.9632s2.0745.7537 3.8162 5.1985-1.4352 5.8376 3.1506 12.5783c4.5857 6.7407 10.7305 14.763 15.192 14.3832 4.4615-.3797 9.3112-7.7284 10.0733-11.6765s.9711-5.6193.4715-10.7501c-.4995-5.1308-1.4171-12.2951-3.6399-19.3211s-5.9373-7.7598-5.474-8.5125z"/><path d="m28.7746 44.8s4.644.2414 8.9369-1.4517c4.2929-1.693 8.2348-5.3208 8.2348-5.3208s.8372-.5362 1.4051.1962-.2312 1.56-.2312 1.56-4.1606 4.3003-8.7471 5.9679-7.4724.8828-9.5985.8881-4.4389-.2638-3.9793-1.8397c.4596-1.576 3.3256-4.4727 5.8183-4.6493 2.4927-.1765 4.2844 4.6493 4.2844 4.6493l-2.305.4301s-.5417-3.1069-1.9791-3.1069-3.8812 2.3394-3.8812 2.3394z"/><path d="m42.6944 54.6038c.8388 2.2061 3.9123 2.3048 4.6596.4229s-1.5419-3.8289-.8951-4.0878 3.0524.7466 3.1018 3.6649c.0495 2.9184-1.9509 4.0386-4.2297 4.0386s-4.6954-1.311-4.7446-4.0386c-.0491-2.7275 3.5178-4.6023 3.8492-4.0385s-2.5796 1.8325-1.7412 4.0385z"/><path d="m31.3702 55.874c-.9381 1.4596-.2251 2.5153 1.7844 2.2564 2.0094-.2589 2.2003-1.1452 2.7408-.705.5404.4402.214.8461-1.3798 2.0729-1.5938 1.2267-5.3528.3666-5.4025-1.6503s.1903-3.666 2.2569-4.3712c2.0667-.7051 4.8579 1.0016 4.5252 1.565s-3.5872-.6272-4.525.8322z"/><path d="m37.9488 66.4206c1.2689-.1763 1.1633-1.5678 2.961-1.8085s4.0639.2878 4.2296.8461c.1656.5583-1.3242.1997-3.2852.9627-1.961.7631-2.7775 2.1804-4.3284 2.2297-1.5509.0494-1.5737-3.2343-1.4097-3.7566.1639-.5223.5638 1.7027 1.8327 1.5266z"/><path d="m44.1531 77.672-2.5379-2.0958-1.0789-2.8589s-3.4896 3.2859-2.9609 2.2061c.5287-1.0799.5198-2.8298 2.1642-4.4614 1.6444-1.6317 2.5379-2.0651 2.5379-2.0651l.9376.6131-.9376 1.4517s.6946 3.183 3.1022 4.4617c2.4076 1.2786 4.7291 1.1085 6.528.6528s1.2567-2.2035 1.128-2.859c-.1288-.6555-1.3608-2.065-3.0526-2.8685-1.6919-.8035-7.7052.6132-7.7052.6132v-2.065s5.4494-1.3392 8.6921 0c3.2427 1.3391 3.6992 2.4756 4.3213 4.8846.6222 2.409-.5784 3.8853-2.5751 4.9825-1.9967 1.0973-4.8973-1.0854-6.4974-.2819-1.6002.8036-2.2666 4.1725-4.6036 4.5597-2.3369.3873-3.0295-.8-4.0394-2.305s0-3.7143 0-3.7143 1.2601 1.3275 2.1642 2.2561c.9042.9286.2307 1.7937 1.4523 1.4589 1.2215-.3348 2.9608-2.5655 2.9608-2.5655z"/><path d="m61.7635 43.4032c2.9104-7.4899 8.7465-16.938 9.8771-15.2154 1.1307 1.7226-1.4881 2.9871-3.5024 6.8697s-3.0817 6.002-4.991 12.39c-1.9094 6.388-2.073 8.9517 1.2648 16.0154 3.3377 7.0637 7.1616 11.792 12.0853 12.2394 4.9237.4475 4.3306.0671 5.9645-1.4208 1.6339-1.488 5.8971-7.0148 7.9114-10.8188s.4334-8.0077 1.6449-12.2954c1.2114-4.2878 2.4914-2.7746 2.8603-4.8553.3689-2.0806-.1632-5.1072-.3311-8.6481s.8392-3.6304 0-5.5156-3.961-3.9605-3.3569-4.6318c.604-.6713 5.2146 2.6179 6.0426 4.1059.8279 1.4881 0 .9482 0 4.6206s.6713 7.4623 0 10.069c-.6713 2.6068-1.936 2.2376-2.6857 4.8553-.7496 2.6176.596 6.763-2.0142 13.0453-2.6101 6.2822-6.1101 9.0285-8.4264 12.0829-2.3164 3.0543-2.8312 2.3718-7.6094 2.1592-4.7782-.2125-10.1925-3.9914-13.8759-12.7542s-3.7685-14.8074-.8579-22.2973z"/><path d="m74.9294 40.4262c-2.3197.4421-2.7653 2.9824-1.0414 4.0459 1.724 1.0634 3.4425-.8392 4.1833-.1703.7409.6689-1.2672 2.8759-4.1505 2.4168s-3.6394-2.6239-3.2429-4.8679c.3964-2.2441 2.3734-3.7194 5.0692-3.2932 2.6958.4263 3.3076 3.0878 2.3249 3.2954-.9827.2077-.8233-1.8691-3.1426-1.4267z"/><path d="m88.426 46.5327c2.0877-1.1015 1.2029-4.4218-.7565-4.934-1.9595-.5122-3.4872 2.2251-4.1377 2.148s.3698-3.1201 3.2604-3.5247 4.2471 1.4439 4.5249 3.7051c.2777 2.2613-1.1805 4.25-3.8823 4.6311-2.7019.3811-5.0701-.6861-3.903-2.0255 1.1672-1.3393 2.8063 1.1012 4.8942 0z"/><path d="m85.709 41.2701h.8962c.3083.9559.4736 1.9521.4904 2.9564 0 1.5443-.4904 3.2209-.4904 3.2209h-.8962s.4904-1.6857.4904-3.2301c-.0162-1.0013-.1815-1.9946-.4904-2.9472z"/><path d="m78.5773 52.6831c1.5199.2348 2.7404-.2033 4.3226.2818 1.5822.485 2.2271 1.3437 2.0062 1.6581-.2208.3144-.6823-.431-2.382-.5637-1.6998-.1327-2.7697.1938-4.1957-.3147-1.4261-.5084-2.0767-1.2776-1.5085-1.7192s.2375.4228 1.7574.6577z"/><path d="m69.4671 57.2107c-.1108-1.2735.1661-3.1089 2.801-3.5836 2.6348-.4746 4.5893 6.5895 6.6462 6.7477s4.0334-2.4265 6.2745-2.8478c2.2412-.4213 2.0057.6586 2.1126 1.1076.1068.4489-1.685.6881-1.685.6881s-3.5371 1.8353-6.7021 3.0535-5.8845-7.4478-7.018-6.7476c-1.1334.7001.4409 6.4509 2.4842 9.5482 2.0433 3.0974 5.2697 2.5789 5.2697 2.5789l.7913-4.161v-2.5316l1.9111-.6882v3.2195l-.5346 3.2671s3.0543-3.3227 3.7984-3.2671c.744.0557-1.2818 7.4359-8.2366 6.3285-6.9549-1.1074-7.8019-11.4387-7.9127-12.7122z"/><path d="m38.4651 26.5485c12.5581-2.7941 29.2668 5.996 29.2668 5.996l-2.1112 3.2738s-14.9902-8.4693-26.2681-5.9116c-11.2779 2.5578-17.284 11.9916-20.0789 21.3454s3.9105 21.0341 7.5925 25.3392c3.6819 4.3052 7.1966 5.8761 7.1966 5.8761l6.2373 7.9148s-12.4624-4.7489-18.4236-13.7908-8.5045-15.1699-5.7936-28.1334 9.8242-19.1153 22.3822-21.9095z"/><path d="m74.109 28.2476c1.1799-.2739 5.5614 3.8315 9.8937 3.1308 4.3324-.7007 3.9248-4.6217 5.2327-4.6217 1.3078 0-.5304 4.1744 0 4.6216.5303.4472 3.0132-.9467 3.6095-.3504.5963.5964-.1488 2.788-5.763 3.1384-2.532.158-6.7666-.0261-9.2004-1.3939-2.9023-1.6311-4.9525-4.2508-3.7725-4.5248z"/><path d="m54.4253 90.9675s4.0873.6392 14.4004-.61c10.313-1.2492 24.0351-13.0302 30.3775-30.0301 6.3428-16.9999-2.3286-25.2889-2.3286-25.2889l.4466-1.7236s10.1728 8.4104 7.1018 21.7935c-3.07 13.3831-5.6294 19.8596-19.384 31.739-13.7545 11.8795-35.3769 6.8111-35.3769 6.8111z"/></g></svg>