<svg fill="none" height="32" viewBox="0 0 32 32" width="32" xmlns="http://www.w3.org/2000/svg" xmlns:xlink="http://www.w3.org/1999/xlink"><clipPath id="a"><path d="m0 0h32v32h-32z"/></clipPath><g clip-path="url(#a)" fill="#cd6b55"><path d="m26.6568 25.271h-7.5924c-.7407 0-1.3432.612-1.3432 1.3645 0 .7539.6025 1.3645 1.3432 1.3645h7.5924c.7407 0 1.3432-.6106 1.3432-1.3645 0-.7525-.6025-1.3645-1.3432-1.3645z" opacity=".4"/><path d="m13.7454 9.20514 7.1944 5.81346c.1736.139.2032.3941.0678.5719l-8.5293 11.1138c-.5361.6865-1.3263 1.0749-2.1729 1.0893l-4.65612.0573c-.24833.0029-.46562-.1691-.52205-.4157l-1.05822-4.6008c-.18343-.8457 0-1.72.53616-2.3936l8.57153-11.16687c.1383-.17916.3937-.21069.5687-.06879z"/><path d="m24.1607 11.5539-1.387 1.7314c-.1396.1763-.3908.205-.5643.0645-1.6861-1.3645-6.0037-4.866-7.2016-5.83635-.1749-.14333-.1989-.39845-.0578-.57618l1.3376-1.66119c1.2134-1.5623 3.3298-1.70563 5.0371-.344l1.9612 1.5623c.8043.63065 1.3404 1.46196 1.5239 2.33627.2116.96175-.0142 1.90625-.6491 2.72325z" opacity=".4"/></g></svg>