<svg width="50" height="50" viewBox="0 0 50 50" fill="none" xmlns="http://www.w3.org/2000/svg">
<rect width="50" height="50" fill="#252525"/>
<path d="M18.8333 43C22.0533 43 24.6667 40.3867 24.6667 37.1667V31.3333H18.8333C15.6133 31.3333 13 33.9467 13 37.1667C13 40.3867 15.6133 43 18.8333 43Z" fill="#0ACF83"/>
<path d="M13 25.5C13 22.28 15.6133 19.6667 18.8333 19.6667H24.6667V31.3333H18.8333C15.6133 31.3333 13 28.72 13 25.5Z" fill="#A259FF"/>
<path d="M13 13.8333C13 10.6133 15.6133 8 18.8333 8H24.6667V19.6667H18.8333C15.6133 19.6667 13 17.0533 13 13.8333Z" fill="#F24E1E"/>
<path d="M24.666 8H30.4993C33.7194 8 36.3327 10.6133 36.3327 13.8333C36.3327 17.0533 33.7194 19.6667 30.4993 19.6667H24.666V8Z" fill="#FF7262"/>
<path d="M36.3327 25.5C36.3327 28.72 33.7194 31.3333 30.4993 31.3333C27.2793 31.3333 24.666 28.72 24.666 25.5C24.666 22.28 27.2793 19.6667 30.4993 19.6667C33.7194 19.6667 36.3327 22.28 36.3327 25.5Z" fill="#1ABCFE"/>
</svg>
