<svg width="500" height="275" viewBox="0 0 500 275" fill="none" xmlns="http://www.w3.org/2000/svg">
<g opacity="0.5">
<path fill-rule="evenodd" clip-rule="evenodd" d="M388.85 29.8257L388.72 29.8283L336.572 29.8301C328.367 29.8304 326.401 23.1764 326.4 14.9711C326.4 6.76568 328.366 0.116096 336.571 0.11581L388.473 0.114L388.67 0.111902C388.873 0.11033 389.146 0.1095 389.485 0.111307C390.162 0.114923 391.104 0.129094 392.273 0.16916C394.605 0.249141 397.867 0.43316 401.754 0.847847C409.449 1.66867 419.987 3.43331 430.747 7.3067C441.448 11.1591 453.181 17.3904 462.333 27.6407C471.761 38.2004 477.714 52.2285 477.714 69.9431C477.714 87.7209 471.646 101.816 462.153 112.456C458.197 116.889 453.763 120.597 449.135 123.705C473.771 134.043 500 154.463 500 193.258C500 213.266 493.791 229.146 483.893 241.294C474.196 253.195 461.623 260.717 449.911 265.508C438.177 270.309 426.652 272.639 418.204 273.791C413.941 274.372 410.365 274.666 407.807 274.816C406.525 274.891 405.493 274.93 404.751 274.95C404.38 274.96 404.081 274.966 403.859 274.969L403.584 274.971L403.491 274.972L403.456 274.972C403.456 274.972 403.429 274.972 403.429 260.658L403.429 274.972L336.572 274.973C328.366 274.973 325.607 267.794 325.607 259.589C325.607 251.383 328.366 245.259 336.571 245.259L403.391 245.258L403.408 245.258L403.467 245.257L403.941 245.247C404.396 245.234 405.12 245.208 406.073 245.152C407.984 245.041 410.791 244.813 414.189 244.349C421.063 243.412 429.966 241.563 438.66 238.006C447.377 234.44 455.233 229.427 460.857 222.524C466.28 215.868 470.286 206.677 470.286 193.258C470.286 169.466 453.736 156.401 431.449 148.751C420.572 145.018 409.484 143.086 400.972 142.105C396.754 141.619 393.26 141.377 390.858 141.257C389.658 141.197 388.738 141.167 388.142 141.153C387.844 141.146 387.628 141.142 387.499 141.141L387.389 141.14L336.606 141.258C328.401 141.277 326.42 134.488 326.4 126.282C326.381 118.077 328.331 111.563 336.537 111.544L387.366 111.425L387.39 111.425L387.461 111.425L387.901 111.417C388.322 111.407 388.992 111.386 389.873 111.34C391.64 111.248 394.235 111.06 397.375 110.673C403.733 109.89 411.944 108.342 419.942 105.362C428.004 102.359 435.05 98.1991 439.981 92.6727C444.636 87.4554 448 80.394 448 69.9431C448 59.429 444.668 52.4712 440.167 47.4308C435.391 42.081 428.552 38.0979 420.682 35.2644C412.87 32.452 404.836 31.0595 398.603 30.3945C395.526 30.0663 392.984 29.9253 391.254 29.866C390.392 29.8364 389.737 29.8274 389.326 29.8252L388.9 29.8253L388.85 29.8257ZM387.401 126.282L387.418 112.081C387.418 112.576 387.418 113.443 387.416 114.964C387.413 117.134 387.407 120.635 387.401 126.282Z" fill="#F0F1F4"/>
<path d="M0 11.5904C0 3.38505 6.65177 0.11391 14.8571 0.11391C23.0625 0.11391 29.7143 6.76568 29.7143 14.9711V263.589C29.7143 271.794 23.0703 273.791 14.865 273.791C6.65958 273.791 0 271.794 0 263.589V11.5904Z" fill="#F0F1F4"/>
<path d="M253.714 11.9595C253.714 3.75411 260.366 0.11391 268.571 0.11391C276.777 0.11391 283.429 3.7541 283.429 11.9595V263.589C283.429 271.794 276.777 273.791 268.571 273.791C260.366 273.791 253.714 271.794 253.714 263.589V11.9595Z" fill="#F0F1F4"/>
<path d="M189.644 92.47C193.219 85.0842 202.105 81.9949 209.49 85.5697C216.876 89.1445 219.965 98.0297 216.391 105.415L143.152 256.73C139.577 264.116 130.692 267.205 123.306 263.631C115.92 260.056 112.831 251.171 116.406 243.785L189.644 92.47Z" fill="#F0F1F4"/>
<path d="M2.00812 23.5879C-1.15169 14.9711 -1.11128 5.28369 6.2743 1.70859C13.6599 -1.86651 24.1785 0.204027 27.7536 7.58961L143.082 244.138C146.657 251.523 143.568 260.409 136.183 263.984C128.797 267.559 119.912 264.47 116.337 257.084L2.00812 23.5879Z" fill="#F0F1F4"/>
</g>
</svg>
