<svg fill="none" height="40" viewBox="0 0 40 40" width="40" xmlns="http://www.w3.org/2000/svg" xmlns:xlink="http://www.w3.org/1999/xlink"><clipPath id="a"><path d="m0 0h40v40h-40z"/></clipPath><g clip-path="url(#a)"><path d="m20 40c-11.03 0-20-8.972-20-20s8.97-20 20-20c11.028 0 20 8.972 20 20s-8.972 20-20 20z" fill="#2b3652" opacity=".6"/><path d="m22.885 28.4418c-.382 0-.766-.146-1.058-.438l-6.974-6.94c-.282-.282-.44-.664-.44-1.064 0-.398.158-.78.44-1.062l6.974-6.944c.586-.584 1.534-.584 2.12.004.584.588.582 1.538-.004 2.122l-5.906 5.88 5.906 5.88c.586.584.588 1.532.004 2.12-.292.296-.678.442-1.062.442z" fill="#fff"/></g></svg>