<svg fill="none" height="40" viewBox="0 0 41 40" width="41" xmlns="http://www.w3.org/2000/svg"><path d="m27.5928 16.3969c-.4703 0-1.0933-.0104-1.8688-.0104-1.8915 0-3.4468-1.5657-3.4468-3.475v-3.35005c0-.26354-.2114-.47812-.4724-.47812h-5.5084c-2.5712 0-4.6504 2.11037-4.6504 4.69687v11.224c0 2.7135 2.1782 4.9125 4.8649 4.9125h8.2034c2.5629 0 4.64-2.0969 4.64-4.6855v-8.3656c0-.2646-.2104-.4781-.4723-.4771-.4404.0032-.9685.0084-1.2892.0084z" fill="#cd6b55"/><path d="m24.7546 9.67427c-.3114-.32396-.8552-.10104-.8552.34793v2.7469c0 1.152.9479 2.1 2.1 2.1.7271.0083 1.7354.0104 2.5917.0083.4385-.001.6614-.525.3573-.8417-1.099-1.1427-3.0667-3.1906-4.1938-4.36143z" fill="#cd6b55"/><path d="m23.7351 20.2384c-.3042-.301-.7938-.3031-1.0979.0021l-1.6552 1.6636v-5.0282c0-.4281-.3479-.776-.7761-.776-.4281 0-.776.3479-.776.776v5.0282l-1.6563-1.6636c-.3031-.3052-.7937-.3031-1.0968-.0021-.3042.3021-.3042.7927-.0032 1.0969l2.9823 2.9958c.0709.0709.1563.1282.2511.1677.0937.0386.1958.0594.2989.0594.1042 0 .2063-.0208.3-.0604.0927-.0385.1771-.0958.2479-.1656l.0021-.0011 2.9813-2.9958c.3021-.3042.3021-.7948-.0021-1.0969z" fill="#fff"/></svg>