<svg fill="none" height="40" viewBox="0 0 41 40" width="41" xmlns="http://www.w3.org/2000/svg"><g fill="#cd6b55"><path d="m15.6356 18.9822c0-.9241-.7489-1.6733-1.6728-1.6733-.9238 0-1.6728.7492-1.6728 1.6733v7.3427c0 .9241.749 1.6733 1.6728 1.6733.9239 0 1.6728-.7492 1.6728-1.6733z"/><path d="m13.9631 15.8755c1.0702 0 1.9378-.8675 1.9378-1.9377s-.8676-1.9378-1.9378-1.9378c-1.0701 0-1.9377.8676-1.9377 1.9378s.8676 1.9377 1.9377 1.9377z"/><path d="m17.8389 17.3089h2.832c.0225.0001.0447.0048.0653.0137.0206.009.0392.022.0546.0384.0154.0163.0274.0356.0351.0567.0077.0212.011.0436.0098.066 0 0-.011 1.2678 0 1.265.011-.0027.0421.0366.0668 0 .3122-.5247.7577-.9574 1.2913-1.2542.5336-.2967 1.1362-.447 1.7467-.4355.1993-.0185.4002-.0114.5977.0211.6723-.0093 1.3306.1919 1.8828.5755s.9705.9304 1.1964 1.5636c.2808.9669.4123 1.971.3899 2.9776v5.8032h-3.3547v-5.8032s.2646-2.2453-1.7272-2.2453-1.9158 2.2453-1.9158 2.2453v5.6275c0 .0463-.0184.0908-.0512.1236s-.0773.0512-.1236.0512h-2.9959c-.0464 0-.0908-.0184-.1236-.0512s-.0512-.0773-.0512-.1236v-10.3433c.0007-.0459.0194-.0897.0521-.1219.0327-.0321.0768-.0502.1227-.0502z"/></g></svg>