<svg fill="none" height="32" viewBox="0 0 32 32" width="32" xmlns="http://www.w3.org/2000/svg"><g fill="#2b3652"><path d="m22.2339 2.66675h-12.45629c-4.53925 0-7.11111 2.57185-7.11111 7.11111v12.44444c0 4.5393 2.57186 7.1111 7.11111 7.1111h12.45629c4.5393 0 7.0993-2.5718 7.0993-7.1111v-12.44444c0-4.53926-2.56-7.11111-7.0993-7.11111z" opacity=".4"/><path d="m9.82488 12.4919c-.60445 0-1.10222.4978-1.10222 1.1141v9.1615c0 .6044.49777 1.1022 1.10222 1.1022.61632 0 1.11412-.4978 1.11412-1.1022v-9.1615c0-.6163-.4978-1.1141-1.11412-1.1141z"/><path d="m16.047 8.11865c-.6044 0-1.1022.49778-1.1022 1.11408v13.53477c0 .6045.4978 1.1023 1.1022 1.1023.6163 0 1.1141-.4978 1.1141-1.1023v-13.53477c0-.6163-.4978-1.11408-1.1141-1.11408z"/><path d="m22.1863 17.3276c-.6163 0-1.114.4978-1.114 1.1141v4.3259c0 .6045.4977 1.1023 1.1022 1.1023.6163 0 1.1141-.4978 1.1141-1.1023v-4.3259c0-.6163-.4978-1.1141-1.1023-1.1141z"/></g></svg>