<svg fill="none" height="24" viewBox="0 0 24 24" width="24" xmlns="http://www.w3.org/2000/svg"><g fill="#2b3652"><path d="m10.0833 15.958h-6.57553c-.83222 0-1.50777.6637-1.50777 1.4813 0 .8166.67555 1.4814 1.50777 1.4814h6.57553c.8322 0 1.5078-.6648 1.5078-1.4814 0-.8176-.6756-1.4813-1.5078-1.4813z" opacity=".4"/><path d="m22.0001 6.37867c0-.81653-.6755-1.48023-1.5067-1.48023h-6.5755c-.8322 0-1.5077.6637-1.5077 1.48023 0 .81763.6755 1.48133 1.5077 1.48133h6.5755c.8312 0 1.5067-.6637 1.5067-1.48133z" opacity=".4"/><path d="m8.87774 6.37856c0 1.86667-1.53888 3.37965-3.43887 3.37965-1.89888 0-3.43887-1.51298-3.43887-3.37965 0-1.86558 1.53999-3.37856 3.43887-3.37856 1.89999 0 3.43887 1.51298 3.43887 3.37856z"/><path d="m21.9998 17.3992c0 1.8656-1.5389 3.3785-3.4389 3.3785-1.8988 0-3.4388-1.5129-3.4388-3.3785 0-1.8667 1.54-3.3797 3.4388-3.3797 1.9 0 3.4389 1.513 3.4389 3.3797z"/></g></svg>