<svg fill="none" height="32" viewBox="0 0 32 32" width="32" xmlns="http://www.w3.org/2000/svg"><g fill="#fff"><path d="m21.0634 14.413 4.9323-.4362c1.1069 0 2.0043.9062 2.0043 2.0239s-.8974 2.0238-2.0043 2.0238l-4.9323-.4362c-.8684 0-1.5724-.7108-1.5724-1.5876 0-.8783.704-1.5877 1.5724-1.5877z" opacity=".4"/><path d="m4.50029 14.4931c.07709-.0778.36509-.4068.63563-.68 1.57816-1.711 5.69888-4.5089 7.85448-5.36515.3272-.13659 1.1549-.42739 1.5985-.44795.4233 0 .8276.0984 1.2131.29227.4814.27171.8654.70057 1.0778 1.2058.1352.34955.3476 1.39963.3476 1.41873.2109 1.1471.3258 3.0123.3258 5.0744 0 1.9622-.1149 3.751-.288 4.9172-.0189.0206-.2312 1.3233-.4625 1.7698-.4233.8166-1.2509 1.3218-2.1367 1.3218h-.0771c-.5775-.0191-1.7905-.5258-1.7905-.5434-2.0407-.8563-6.06395-3.519-7.68139-5.2888 0 0-.45672-.4553-.65454-.7388-.30836-.4083-.46254-.9135-.46254-1.4187 0-.564.17309-1.0883.50036-1.5172z"/></g></svg>