<svg fill="none" height="24" viewBox="0 0 24 24" width="24" xmlns="http://www.w3.org/2000/svg" xmlns:xlink="http://www.w3.org/1999/xlink"><clipPath id="a"><path d="m2 2h20v20h-20z"/></clipPath><mask id="b" height="20" maskUnits="userSpaceOnUse" width="20" x="2" y="2"><path d="m2 2h20v20h-20z" fill="#fff"/></mask><g clip-path="url(#a)"><g style="mask:url(#b);stroke:#fff;stroke-width:2;stroke-miterlimit:10;stroke-linecap:round;stroke-linejoin:round"><path d="m15 3h6v6"/><path d="m21 3-10 10"/><path d="m19 18v1c0 .5304-.2107 1.0391-.5858 1.4142s-.8838.5858-1.4142.5858h-12c-.53043 0-1.03914-.2107-1.41421-.5858-.37508-.3751-.58579-.8838-.58579-1.4142v-12c0-.53043.21071-1.03914.58579-1.41421.37507-.37508.88378-.58579 1.41421-.58579h1"/></g></g></svg>