<svg fill="none" height="32" viewBox="0 0 32 32" width="32" xmlns="http://www.w3.org/2000/svg"><g fill="#fff"><path d="m13.9234 20.2878h-7.12348c-.90157 0-1.63342.7191-1.63342 1.6048 0 .8846.73185 1.6048 1.63342 1.6048h7.12348c.9016 0 1.6334-.7202 1.6334-1.6048 0-.8857-.7318-1.6048-1.6334-1.6048z" opacity=".4"/><path d="m26.833 9.91023c0-.88458-.7319-1.60359-1.6323-1.60359h-7.1234c-.9016 0-1.6335.71901-1.6335 1.60359 0 .88577.7319 1.60477 1.6335 1.60477h7.1234c.9004 0 1.6323-.719 1.6323-1.60477z" opacity=".4"/><path d="m12.6174 9.91011c0 2.02219-1.6671 3.66129-3.72545 3.66129-2.05712 0-3.72545-1.6391-3.72545-3.66129 0-2.02104 1.66833-3.66011 3.72545-3.66011 2.05835 0 3.72545 1.63907 3.72545 3.66011z"/><path d="m26.8332 21.849c0 2.0211-1.6671 3.6601-3.7254 3.6601-2.0572 0-3.7255-1.639-3.7255-3.6601 0-2.0222 1.6683-3.6613 3.7255-3.6613 2.0583 0 3.7254 1.6391 3.7254 3.6613z"/></g></svg>