<svg fill="none" height="50" viewBox="0 0 50 50" width="50" xmlns="http://www.w3.org/2000/svg" xmlns:xlink="http://www.w3.org/1999/xlink"><clipPath id="a"><path d="m0 0h50v50h-50z"/></clipPath><g clip-path="url(#a)"><path d="m0 0h50v50h-50z" fill="#252525"/><path d="m18.8333 43.0002c3.22 0 5.8334-2.6133 5.8334-5.8333v-5.8334h-5.8334c-3.22 0-5.8333 2.6134-5.8333 5.8334s2.6133 5.8333 5.8333 5.8333z" fill="#0acf83"/><path d="m13 25.4998c0-3.22 2.6133-5.8333 5.8333-5.8333h5.8334v11.6666h-5.8334c-3.22 0-5.8333-2.6133-5.8333-5.8333z" fill="#a259ff"/><path d="m13 13.8333c0-3.22 2.6133-5.8333 5.8333-5.8333h5.8334v11.6667h-5.8334c-3.22 0-5.8333-2.6134-5.8333-5.8334z" fill="#f24e1e"/><path d="m24.6641 8h5.8333c3.2201 0 5.8334 2.6133 5.8334 5.8333s-2.6133 5.8334-5.8334 5.8334h-5.8333z" fill="#ff7262"/><path d="m36.3308 25.4998c0 3.22-2.6133 5.8333-5.8334 5.8333-3.22 0-5.8333-2.6133-5.8333-5.8333s2.6133-5.8333 5.8333-5.8333c3.2201 0 5.8334 2.6133 5.8334 5.8333z" fill="#1abcfe"/></g></svg>