<svg fill="none" height="50" viewBox="0 0 50 50" width="50" xmlns="http://www.w3.org/2000/svg" xmlns:xlink="http://www.w3.org/1999/xlink"><linearGradient id="a" gradientUnits="userSpaceOnUse" x1="-61.8389" x2="2651.73" y1="520.352" y2="1951.73"><stop offset="0" stop-color="#fff" stop-opacity=".1"/><stop offset=".14" stop-color="#fff" stop-opacity=".08"/><stop offset=".61" stop-color="#fff" stop-opacity=".02"/><stop offset="1" stop-color="#fff" stop-opacity="0"/></linearGradient><clipPath id="b"><path d="m0 0h50v50h-50z"/></clipPath><g clip-path="url(#b)"><path d="m0 0h50v50h-50z" fill="#fff"/><path d="m14.0117 34.2053 3.6926-23.6283c.0451-.2898.2705-.5182.5596-.5673.2892-.04918.5773.0922.7155.3508l3.8188 7.1225 1.5221-2.8981c.1179-.2241.3503-.3644.6035-.3644.2533 0 .4856.1403.6035.3644l10.3054 19.6203z" fill="#ffa000"/><path d="m26.7686 25.001-3.9722-7.5215-8.7847 16.7256z" fill="#f57c00"/><path d="m35.8329 34.2055-2.8282-17.5013c-.0428-.2513-.2221-.4578-.465-.5356s-.5088-.013-.6892.1672l-17.8388 17.8695 9.8707 5.5354c.6198.3461 1.3747.3461 1.9946 0z" fill="#ffca28"/><path d="m33.0049 16.7041c-.0428-.2513-.2221-.4578-.465-.5356-.2429-.0779-.5088-.0131-.6892.1671l-3.5406 3.5496-2.7841-5.3003c-.1179-.2241-.3503-.3644-.6035-.3644s-.4856.1403-.6035.3644l-1.5222 2.8981-3.8189-7.1224c-.1385-.2587-.4269-.3998-.7164-.3503s-.5141.2785-.5588.5685l-3.6908 23.6266h-.0119l.0119.0136.0972.0477 17.7365-17.757c.1803-.1811.4468-.2463.6903-.1687.2436.0776.4232.2849.4655.5369l2.8044 17.3445.0273-.0171zm-18.9606 17.4689 3.6602-23.4271c.0445-.29.2697-.519.5589-.5685s.5777.0915.7165.3503l3.8185 7.1225 1.5221-2.8981c.1179-.2241.3503-.3644.6035-.3644s.4856.1403.6035.3644l2.7277 5.1876z" fill="#fff" fill-opacity=".2"/><path d="m25.877 39.5739c-.6198.3461-1.3747.3461-1.9946 0l-9.8468-5.52-.0239.1517 9.8707 5.5338c.6198.346 1.3747.346 1.9946 0l9.9559-5.5338-.0256-.1568z" fill="#a52714" opacity=".2"/><path d="m32.9773 16.7075c-.0426-.2512-.2213-.4578-.4634-.5351-.242-.0774-.5069-.0131-.6867.1671l-3.5284 3.5478-2.7742-5.2979c-.1175-.224-.3491-.3642-.6014-.3642s-.4838.1402-.6013.3642l-1.5171 2.8969-3.8053-7.1195c-.1381-.2586-.4255-.39968-.7137-.3501-.2883.0495-.5126.2783-.557.5682l-3.678 23.6162 9.8362 5.5313c.6176.346 1.3699.346 1.9876 0l9.9211-5.5313z" fill="url(#a)"/></g></svg>