<svg fill="none" height="50" viewBox="0 0 50 50" width="50" xmlns="http://www.w3.org/2000/svg" xmlns:xlink="http://www.w3.org/1999/xlink"><clipPath id="a"><path d="m0 0h50v50h-50z"/></clipPath><mask id="b" height="30" maskUnits="userSpaceOnUse" width="30" x="10" y="10"><path d="m10 10h30v30h-30z" fill="#fff"/></mask><g clip-path="url(#a)"><path d="m0 0h50v50h-50z" fill="#f03c2e"/><g mask="url(#b)"><path d="m39.4353 23.6641-13.0987-13.0977c-.1795-.1796-.3925-.322-.627-.4192s-.4859-.1472-.7397-.1472-.5052.05-.7397.1472-.4476.2396-.627.4192l-2.719 2.7203 3.4497 3.4496c.4056-.1377.8416-.1592 1.2587-.0621.4172.0972.7988.3092 1.1018.6119.3047.305.5173.6895.6137 1.1097.0963.4201.0725.8589-.0688 1.2662l3.3259 3.3249c.4074-.1414.8464-.1653 1.2666-.0687.4203.0965.8049.3095 1.1096.6146.2135.2135.3828.4669.4984.7458.1155.2788.175.5778.175.8796 0 .3019-.0595.6008-.175.8797-.1156.2789-.2849.5323-.4984.7458-.4316.4311-1.0167.6733-1.6267.6733s-1.1951-.2422-1.6267-.6733c-.3206-.3212-.5391-.73-.6279-1.175-.0887-.445-.0439-.9064.129-1.3259l-3.1016-3.1007v8.1612c.3273.1617.6115.3991.8288.6925.2174.2934.3617.6344.4211.9947.0593.3602.032.7295-.0797 1.0771-.1118.3476-.3048.6636-.563.9218-.2134.2135-.4668.3828-.7457.4983-.2789.1156-.5778.175-.8797.175s-.6008-.0594-.8797-.175c-.2789-.1155-.5323-.2848-.7457-.4983-.2135-.2135-.3829-.4669-.4985-.7458s-.175-.5779-.175-.8798.0594-.6009.175-.8798.285-.5323.4985-.7458c.2151-.2155.4707-.3863.7522-.5025v-8.2363c-.2803-.1154-.535-.2851-.7496-.4993-.2145-.2142-.3846-.4687-.5005-.7489-.1159-.2801-.1753-.5804-.1748-.8836.0005-.3031.0609-.6032.1777-.883l-3.4013-3.402-8.9824 8.9801c-.3619.3627-.5652.8541-.5652 1.3665s.2033 1.0039.5652 1.3665l13.0994 13.0994c.3627.3618.854.5651 1.3663.5651.5124 0 1.0037-.2033 1.3664-.5651l13.038-13.038c.3619-.3627.5652-.8541.5652-1.3665s-.2033-1.0039-.5652-1.3665z" fill="#fff"/></g></g></svg>