<svg fill="none" height="275" viewBox="0 0 500 275" width="500" xmlns="http://www.w3.org/2000/svg"><g fill="#f0f1f4" opacity=".5"><path clip-rule="evenodd" d="m388.85 29.8257-.13.0026-52.148.0018c-8.205.0003-10.171-6.6537-10.172-14.859 0-8.20542 1.966-14.855004 10.171-14.85529l51.902-.00181.197-.002098c.203-.001572.476-.002402.815-.000595.677.003616 1.619.017787 2.788.057853 2.332.079981 5.594.264 9.481.678687 7.695.820823 18.233 2.585463 28.993 6.458853 10.701 3.8524 22.434 10.0837 31.586 20.334 9.428 10.5597 15.381 24.5878 15.381 42.3024 0 17.7778-6.068 31.8729-15.561 42.5129-3.956 4.433-8.39 8.141-13.018 11.249 24.636 10.338 50.865 30.758 50.865 69.553 0 20.008-6.209 35.888-16.107 48.036-9.697 11.901-22.27 19.423-33.982 24.214-11.734 4.801-23.259 7.131-31.707 8.283-4.263.581-7.839.875-10.397 1.025-1.282.075-2.314.114-3.056.134-.371.01-.67.016-.892.019l-.275.002-.093.001h-.035s-.027 0-.027-14.314v14.314l-66.857.001c-8.206 0-10.965-7.179-10.965-15.384 0-8.206 2.759-14.33 10.964-14.33l66.82-.001h.017l.059-.001.474-.01c.455-.013 1.179-.039 2.132-.095 1.911-.111 4.718-.339 8.116-.803 6.874-.937 15.777-2.786 24.471-6.343 8.717-3.566 16.573-8.579 22.197-15.482 5.423-6.656 9.429-15.847 9.429-29.266 0-23.792-16.55-36.857-38.837-44.507-10.877-3.733-21.965-5.665-30.477-6.646-4.218-.486-7.712-.728-10.114-.848-1.2-.06-2.12-.09-2.716-.104-.298-.007-.514-.011-.643-.012l-.11-.001-50.783.118c-8.205.019-10.186-6.77-10.206-14.976-.019-8.205 1.931-14.719 10.137-14.738l50.829-.119h.024.071l.44-.008c.421-.01 1.091-.031 1.972-.077 1.767-.092 4.362-.28 7.502-.667 6.358-.783 14.569-2.331 22.567-5.311 8.062-3.003 15.108-7.1629 20.039-12.6893 4.655-5.2173 8.019-12.2787 8.019-22.7296 0-10.5141-3.332-17.4719-7.833-22.5123-4.776-5.3498-11.615-9.3329-19.485-12.1664-7.812-2.8124-15.846-4.2049-22.079-4.8699-3.077-.3282-5.619-.4692-7.349-.5285-.862-.0296-1.517-.0386-1.928-.0408l-.426.0001zm-1.449 96.4563.017-14.201c0 .495 0 1.362-.002 2.883-.003 2.17-.009 5.671-.015 11.318z" fill-rule="evenodd"/><path d="m0 11.5904c0-8.20535 6.65177-11.47649 14.8571-11.47649 8.2054 0 14.8572 6.65177 14.8572 14.85719v248.6179c0 8.205-6.644 10.202-14.8493 10.202-8.20542 0-14.865-1.997-14.865-10.202z"/><path d="m253.714 11.9595c0-8.20539 6.652-11.84559 14.857-11.84559 8.206 0 14.858 3.64019 14.858 11.84559v251.6295c0 8.205-6.652 10.202-14.858 10.202-8.205 0-14.857-1.997-14.857-10.202z"/><path d="m189.644 92.47c3.575-7.3858 12.461-10.4751 19.846-6.9003 7.386 3.5748 10.475 12.46 6.901 19.8453l-73.239 151.315c-3.575 7.386-12.46 10.475-19.846 6.901-7.386-3.575-10.475-12.46-6.9-19.846z"/><path d="m2.00812 23.5879c-3.15981-8.6168-3.1194-18.30421 4.26618-21.87931 7.3856-3.5751 17.9042-1.504563 21.4793 5.88102l115.3284 236.54839c3.575 7.385.486 16.271-6.899 19.846-7.386 3.575-16.271.486-19.846-6.9z"/></g></svg>