<svg fill="none" height="50" viewBox="0 0 50 50" width="50" xmlns="http://www.w3.org/2000/svg" xmlns:xlink="http://www.w3.org/1999/xlink"><clipPath id="a"><path d="m0 0h50v50h-50z"/></clipPath><mask id="b" height="30" maskUnits="userSpaceOnUse" width="34" x="8" y="10"><path d="m8 10h33.7186v30h-33.7186z" fill="#fff"/></mask><g clip-path="url(#a)"><path d="m0 0h50v50h-50z" fill="#2a2c33"/><g mask="url(#b)"><path d="m24.857 28.0053c1.6598 0 3.0053-1.3455 3.0053-3.0053s-1.3455-3.0054-3.0053-3.0054-3.0054 1.3456-3.0054 3.0054 1.3456 3.0053 3.0054 3.0053z" fill="#61dafb"/><g stroke="#61dafb"><path d="m24.8567 31.1574c8.9063 0 16.1263-2.7567 16.1263-6.1573s-7.22-6.1573-16.1263-6.1573-16.12623 2.7567-16.12623 6.1573 7.21993 6.1573 16.12623 6.1573z"/><path d="m19.527 28.0786c4.4531 7.713 10.4505 12.5874 13.3955 10.8871s1.7224-9.3314-2.7307-17.0445c-4.4532-7.713-10.4506-12.58733-13.3956-10.8871-2.945 1.7003-1.7224 9.3314 2.7308 17.0445z"/><path d="m19.5231 21.9213c-4.4532 7.7131-5.6758 15.3441-2.7308 17.0444s8.9424-3.174 13.3956-10.8871c4.4531-7.7131 5.6757-15.3441 2.7307-17.0444-2.945-1.70037-8.9424 3.174-13.3955 10.8871z"/></g></g><path d="m29 29h12v12h-12z" fill="#2a2c33"/><g stroke="#fff" stroke-linecap="round" stroke-linejoin="round" stroke-miterlimit="10"><path d="m29 35.5459h12"/><path d="m39.9094 37.7275h-9.8188c-.1433 0-.2852-.0282-.4175-.0831-.1324-.0548-.2526-.1352-.3539-.2365-.1013-.1014-.1816-.2217-.2364-.3541s-.0829-.2743-.0828-.4176v-6.5456c0-.2893.1149-.5666.3194-.7712.2046-.2045.4819-.3194.7712-.3194h9.8188c.2893 0 .5666.1149.7712.3194.2045.2046.3194.4819.3194.7712v6.5456c.0001.1433-.028.2852-.0828.4176s-.1351.2527-.2364.3541c-.1013.1013-.2215.1817-.3539.2365-.1323.0549-.2742.0831-.4175.0831z"/><path d="m31.1797 41h7.6363"/><path d="m37.7273 41c-.2892 0-.5666-.1149-.7712-.3194-.2045-.2045-.3194-.4819-.3194-.7712v-2.1819"/><path d="m32.2734 41c.2893 0 .5667-.1149.7712-.3194s.3194-.4819.3194-.7712v-2.1819"/></g></g></svg>