<svg fill="none" height="50" viewBox="0 0 50 50" width="50" xmlns="http://www.w3.org/2000/svg" xmlns:xlink="http://www.w3.org/1999/xlink"><clipPath id="a"><path d="m0 0h50v50h-50z"/></clipPath><mask id="b" height="30" maskUnits="userSpaceOnUse" width="34" x="8" y="10"><path d="m8 10h33.7186v30h-33.7186z" fill="#fff"/></mask><g clip-path="url(#a)"><path d="m0 0h50v50h-50z" fill="#2a2c33"/><g mask="url(#b)"><path d="m24.857 28.0053c1.6598 0 3.0053-1.3455 3.0053-3.0053s-1.3455-3.0054-3.0053-3.0054-3.0054 1.3456-3.0054 3.0054 1.3456 3.0053 3.0054 3.0053z" fill="#61dafb"/><g stroke="#61dafb"><path d="m24.8567 31.1574c8.9063 0 16.1263-2.7567 16.1263-6.1573s-7.22-6.1573-16.1263-6.1573-16.12623 2.7567-16.12623 6.1573 7.21993 6.1573 16.12623 6.1573z"/><path d="m19.527 28.0786c4.4531 7.713 10.4505 12.5874 13.3955 10.8871s1.7224-9.3314-2.7307-17.0445c-4.4532-7.713-10.4506-12.58733-13.3956-10.8871-2.945 1.7003-1.7224 9.3314 2.7308 17.0445z"/><path d="m19.5231 21.9213c-4.4532 7.7131-5.6758 15.3441-2.7308 17.0444s8.9424-3.174 13.3956-10.8871c4.4531-7.7131 5.6757-15.3441 2.7307-17.0444-2.945-1.70037-8.9424 3.174-13.3955 10.8871z"/></g></g><path d="m33 30h8.7277v12h-8.7277z" fill="#2a2c33"/><g stroke="#fff" stroke-linecap="round" stroke-linejoin="round" stroke-miterlimit="10"><path d="m33 38.7271h8.7269"/><path d="m35.1797 40.0288h4.3617"/><path d="m40.0904 42h-5.4539c-.434 0-.8503-.1724-1.1572-.4793s-.4793-.7232-.4793-1.1572v-8.727c0-.434.1724-.8503.4793-1.1572s.7232-.4793 1.1572-.4793h5.4546c.4341 0 .8503.1724 1.1572.4793s.4794.7232.4794 1.1572v8.727c0 .2149-.0424.4278-.1247.6264s-.2029.3791-.3549.531c-.1521.152-.3326.2725-.5312.3547s-.4115.1245-.6265.1244z"/></g></g></svg>