<svg fill="none" height="50" viewBox="0 0 50 50" width="50" xmlns="http://www.w3.org/2000/svg" xmlns:xlink="http://www.w3.org/1999/xlink"><clipPath id="a"><path d="m0 0h50v50h-50z"/></clipPath><g clip-path="url(#a)"><path d="m0 0h50v50h-50z" fill="#fff"/><path d="m15.2331 10.9877 9.3428-.9877 9.3428.9877 7.2331 9.7098-16.5759 19.3025-16.5759-19.3025z" fill="#fdb300"/><path d="m14.7141 20.6973 9.8618 19.3025-16.5759-19.3025z" fill="#ea6c00"/><path d="m34.436 20.6973-9.8618 19.3025 16.5759-19.3025z" fill="#ea6c00"/><path d="m14.7148 20.6973h19.7237l-9.8619 19.3025z" fill="#fdad00"/><path d="m24.5766 10-9.3428.9877-.519 9.7098z" fill="#fdd231"/><path d="m24.5742 10 9.3428.9877.519 9.7098z" fill="#fdd231"/><path d="m41.1512 20.6976-7.2332-9.7098.5191 9.7098z" fill="#fdad00"/><path d="m8 20.6976 7.2331-9.7098-.519 9.7098z" fill="#fdad00"/><path d="m24.5766 10-9.8618 10.6975h19.7237z" fill="#feeeb7"/></g></svg>