<svg width="50" height="50" viewBox="0 0 50 50" fill="none" xmlns="http://www.w3.org/2000/svg">
<rect width="50" height="50" fill="white"/>
<path d="M15.2331 10.9877L24.5759 10L33.9187 10.9877L41.1518 20.6975L24.5759 40L8 20.6975L15.2331 10.9877Z" fill="#FDB300"/>
<path d="M14.7141 20.6975L24.5759 40L8 20.6975H14.7141Z" fill="#EA6C00"/>
<path d="M34.4363 20.6975L24.5745 40L41.1504 20.6975H34.4363Z" fill="#EA6C00"/>
<path d="M14.7129 20.6975H34.4366L24.5747 40L14.7129 20.6975Z" fill="#FDAD00"/>
<path d="M24.5747 10L15.2319 10.9877L14.7129 20.6975L24.5747 10Z" fill="#FDD231"/>
<path d="M24.5757 10L33.9185 10.9877L34.4375 20.6975L24.5757 10Z" fill="#FDD231"/>
<path d="M41.1504 20.6975L33.9172 10.9877L34.4363 20.6975H41.1504Z" fill="#FDAD00"/>
<path d="M8 20.6975L15.2331 10.9877L14.7141 20.6975H8Z" fill="#FDAD00"/>
<path d="M24.5747 10L14.7129 20.6975H34.4366L24.5747 10Z" fill="#FEEEB7"/>
</svg>
