<svg fill="none" height="50" viewBox="0 0 50 50" width="50" xmlns="http://www.w3.org/2000/svg" xmlns:xlink="http://www.w3.org/1999/xlink"><clipPath id="a"><path d="m0 0h50v50h-50z"/></clipPath><g clip-path="url(#a)"><path d="m0 0h50v50h-50z" fill="#470137"/><g fill="#ff61f6"><path d="m25.7689 16.7656-5.1849 8.5551 5.5306 9.0736c.0346.0691.0518.1383.0346.2074-.0173.0691-.0865.0173-.1902.0346h-3.9578c-.2765 0-.4666-.0173-.5876-.1901-.3629-.7259-.7432-1.4345-1.1061-2.1604-.363-.7086-.7605-1.4345-1.1753-2.1777s-.8295-1.4863-1.2443-2.2468h-.0346c-.363.7432-.7605 1.4864-1.158 2.2295-.3975.7432-.795 1.4864-1.1752 2.2123-.3975.7259-.795 1.469-1.1926 2.1776-.0691.1729-.2074.1901-.3975.1901h-3.8022c-.0692 0-.121.0346-.121-.0518-.01731-.0691 0-.1383.0345-.1901l5.3751-8.8144-5.2368-8.8662c-.0518-.0691-.0691-.1383-.0346-.1728.0346-.0519.1037-.0692.1729-.0692h3.9232c.0864 0 .1729.0173.242.0346.0691.0346.121.0864.1728.1556.3284.7431.7086 1.4863 1.1061 2.2295.4148.7431.8123 1.469 1.2444 2.1949.4148.7259.795 1.4518 1.158 2.195h.0346c.3629-.7605.7431-1.5037 1.1234-2.2295.3802-.7259.7777-1.4518 1.1752-2.1777s.7777-1.4691 1.158-2.1777c.0172-.0691.0518-.1382.1037-.1728.0691-.0346.1382-.0519.2246-.0346h3.6468c.0864-.0173.1728.0346.1901.121.0173.0173-.0173.0864-.0519.121z"/><path d="m33.7534 34.9992c-1.279.0173-2.5579-.242-3.7159-.7777-1.0888-.5013-1.9875-1.3308-2.6097-2.3505-.6395-1.0543-.9506-2.3678-.9506-3.9406-.0173-1.2789.3111-2.5406.9506-3.6467.6567-1.1234 1.6073-2.0567 2.748-2.6789 1.2098-.674 2.6616-1.0024 4.3726-1.0024.0864 0 .2074 0 .3629.0173.1556.0173.3284.0173.5358.0345v-5.4614c0-.121.0519-.1901.1729-.1901h3.5084c.0864-.0173.1556.0518.1728.121v.0345 16.4535c0 .3111.0173.6568.0346 1.037.0346.3629.0519.7086.0691 1.0024 0 .121-.0518.2247-.1728.2765-.8987.3803-1.8493.6568-2.8171.8296-.8815.1556-1.7629.242-2.6616.242zm1.6937-3.4566v-7.6046c-.1555-.0345-.3111-.0691-.4666-.0864-.1901-.0173-.3802-.0346-.5704-.0346-.674 0-1.348.1383-1.953.4494-.5876.2938-1.0888.7259-1.469 1.279-.3802.553-.5703 1.2962-.5703 2.1949-.0173.6049.0864 1.2098.2938 1.7802.1728.4666.432.8814.7777 1.2271.3284.3111.7259.553 1.1752.6913.4667.1555.9506.2247 1.4345.2247.2593 0 .5013-.0173.7259-.0346.2247.0173.4148-.0173.6222-.0864z"/></g></g></svg>