<svg width="490" height="53" viewBox="0 0 490 53" fill="none" xmlns="http://www.w3.org/2000/svg">
<g clip-path="url(#clip0_31_1577)">
<path d="M40.4245 27.0465C42.1912 27.0474 43.9491 26.7961 45.6449 26.3003V19.6397C43.3484 20.7136 40.7773 21.0555 38.2799 20.6192C35.7826 20.1829 33.4798 18.9894 31.6834 17.2005L36.1103 12.7736C32.065 8.7178 27.2581 5.50143 21.9658 3.30931C16.6735 1.1172 11.0002 -0.0074371 5.27183 3.701e-05C3.50976 0.000395923 1.74931 0.106691 0 0.318348L0 6.61809C5.73631 5.79823 11.5848 6.32626 17.0815 8.1603C22.5782 9.99434 27.5719 13.0839 31.6666 17.184L31.6831 17.2001L27.2815 21.602C23.7582 18.0815 19.4422 15.4571 14.6953 13.9487C9.94851 12.4403 4.90923 12.092 0 12.9329L0 19.2933C4.06825 18.4103 8.29329 18.565 12.2861 19.7432C16.2788 20.9214 19.911 23.0852 22.8481 26.0354L22.6628 26.2204L18.4141 30.4691C16.049 28.1056 13.0906 26.4232 9.85015 25.5989C6.60971 24.7745 3.207 24.8388 0 25.7849L0 32.4523C2.29875 31.3638 4.87801 31.0133 7.38388 31.4489C9.88975 31.8844 12.1995 33.0847 13.9961 34.8851L13.7922 35.0906L9.58633 39.2972C13.6315 43.3528 18.4383 46.5691 23.7304 48.7612C29.0225 50.9533 34.6956 52.0781 40.4238 52.0708C42.1686 52.0703 43.9119 51.9655 45.6442 51.7569V45.4578C39.9107 46.2712 34.0665 45.7395 28.5739 43.905C23.0812 42.0704 18.0906 38.9832 13.9968 34.8875L14.2024 34.6819L18.4168 30.4674C21.3036 33.3621 24.734 35.6577 28.5108 37.2224C32.2876 38.7871 36.3364 39.59 40.4245 39.585C42.1738 39.5848 43.9201 39.4379 45.6449 39.1458V32.7871C41.5838 33.6613 37.3681 33.5014 33.3849 32.322C29.4017 31.1426 25.7786 28.9815 22.8481 26.0371L27.2812 21.6023C29.0053 23.3309 31.054 24.7018 33.3095 25.6361C35.5651 26.5704 37.9831 27.0497 40.4245 27.0465Z" fill="#00E8D1"/>
<g style="mix-blend-mode:darken" opacity="0.25">
<path d="M27.2812 21.6023C28.5449 22.8663 29.9836 23.9421 31.5533 24.7967L36.2618 20.0882C34.54 19.4778 32.976 18.4913 31.6835 17.2004L27.2812 21.6023Z" fill="#0D2B3A"/>
</g>
<g style="mix-blend-mode:darken" opacity="0.25">
<path d="M13.9976 34.8875L9.58643 39.2972C10.8344 40.5448 12.1566 41.716 13.5456 42.8044L17.9948 38.355C16.5824 37.2947 15.2466 36.136 13.9976 34.8875Z" fill="#0D2B3A"/>
</g>
<g style="mix-blend-mode:darken" opacity="0.25">
<path d="M22.8481 26.0354L18.415 30.4685C19.6663 31.7194 21.0213 32.862 22.4657 33.8839L26.9772 29.3727C25.4869 28.4091 24.1028 27.2904 22.8481 26.0354Z" fill="#0D2B3A"/>
</g>
<path d="M297.151 14.177C296.132 13.7116 295.019 13.4888 293.899 13.526C291.08 13.526 288.695 14.8269 286.744 17.4286L286.419 17.7538L286.094 17.4286L285.443 14.1766H279.59V44.7461H286.094V26.9252C286.156 25.0704 286.952 23.3159 288.306 22.0467C288.953 21.3974 289.724 20.8845 290.573 20.5383C291.422 20.192 292.332 20.0194 293.249 20.0306H295.532L297.151 14.177Z" fill="#0D2B3A"/>
<path d="M103.556 14.177V44.7465H97.7025L97.0521 42.1445L96.727 41.819L96.4018 42.1445C94.2318 44.3129 91.4132 45.3969 87.9462 45.3965C85.8954 45.4351 83.858 45.0572 81.9574 44.2857C80.0568 43.5142 78.3325 42.3651 76.8889 40.9079C73.8536 37.9155 72.3359 34.0998 72.3359 29.4607C72.3359 24.8216 73.8532 21.0061 76.8879 18.0142C78.3316 16.5571 80.0558 15.408 81.9564 14.6365C83.857 13.865 85.8943 13.4871 87.9452 13.5256C91.4138 13.5256 94.2323 14.6096 96.4008 16.7776L96.726 17.1031L97.0511 16.7776L97.7021 14.1763L103.556 14.177ZM95.0357 36.6164C96.814 34.6646 97.7695 32.1013 97.7025 29.4617C97.7698 26.8217 96.8143 24.2578 95.0357 22.3057C94.1889 21.3553 93.1449 20.601 91.9767 20.0955C90.8084 19.5899 89.5439 19.3453 88.2713 19.3786C85.279 19.3786 82.9482 20.3326 81.2791 22.2406C79.61 24.1487 78.7754 26.5553 78.7751 29.4604C78.7751 32.3655 79.6098 34.7719 81.2791 36.6798C82.9485 38.5876 85.2792 39.5416 88.2713 39.5418C89.5438 39.5754 90.8082 39.331 91.9764 38.8257C93.1447 38.3205 94.1887 37.5665 95.0357 36.6164Z" fill="#0D2B3A"/>
<path d="M117.8 14.177H111.426V44.7468H117.8V14.177Z" fill="#0D2B3A"/>
<path d="M174.624 14.177H168.25V44.7468H174.624V14.177Z" fill="#0D2B3A"/>
<path d="M206.559 18.7299L208.184 16.7769C209.084 15.7385 210.222 14.9348 211.502 14.4353C212.814 13.8542 214.23 13.5445 215.664 13.5249C219.176 13.5249 221.897 14.5331 223.827 16.5494C225.757 18.5657 226.722 21.2433 226.721 24.5822V44.7451H220.217V25.2339C220.217 21.3312 218.483 19.3799 215.014 19.3799C214.097 19.3689 213.188 19.5417 212.339 19.888C211.49 20.2344 210.719 20.7472 210.072 21.3963C208.718 22.6656 207.923 24.4198 207.86 26.2745V44.7464H201.355V25.2339C201.355 21.3312 199.62 19.3799 196.152 19.3799C195.235 19.3688 194.325 19.5415 193.476 19.8878C192.627 20.2342 191.856 20.7471 191.208 21.3963C189.855 22.6656 189.059 24.4198 188.997 26.2745V44.7464H182.493V14.1769H188.348L188.999 16.7783L189.325 17.1038L189.65 16.7783C190.428 15.7251 191.487 14.9134 192.707 14.4367C193.995 13.8518 195.39 13.5417 196.805 13.5263C201.486 13.5263 204.737 15.2608 206.559 18.7299Z" fill="#0D2B3A"/>
<path d="M260.542 31.0876H238.429C238.401 32.1984 238.597 33.3035 239.005 34.3371C239.412 35.3707 240.024 36.3117 240.803 37.1043C242.385 38.7305 244.521 39.5434 247.21 39.5432C248.893 39.5924 250.554 39.1519 251.991 38.2754C253.246 37.511 254.216 36.3575 254.755 34.9906L260.219 37.5922C257.226 42.7955 252.782 45.3973 246.885 45.3975C244.902 45.4298 242.935 45.0472 241.109 44.2742C239.284 43.5012 237.64 42.3549 236.283 40.909C233.377 37.9166 231.925 34.1009 231.925 29.4618C231.925 24.779 233.345 20.9523 236.186 17.9817C239.026 15.011 242.592 13.5262 246.885 13.5274C248.788 13.4979 250.675 13.871 252.424 14.6221C254.172 15.3732 255.742 16.4854 257.031 17.8857C259.806 20.7902 261.193 24.5405 261.193 29.1366L260.542 31.0876ZM246.884 19.38C242.634 19.38 239.924 21.3747 238.754 25.3642H254.364C254.278 24.5266 254.019 23.716 253.605 22.9829C253.191 22.2498 252.63 21.6101 251.957 21.1038C250.52 19.9528 248.725 19.3427 246.884 19.38Z" fill="#0D2B3A"/>
<path d="M327.071 31.0876H304.956C304.929 32.1984 305.125 33.3035 305.532 34.3371C305.94 35.3707 306.552 36.3117 307.331 37.1043C308.913 38.7305 311.049 39.5434 313.738 39.5432C315.421 39.5924 317.081 39.1519 318.519 38.2754C319.773 37.5109 320.744 36.3574 321.283 34.9906L326.746 37.5922C323.754 42.7955 319.31 45.3973 313.413 45.3975C311.43 45.4298 309.463 45.0472 307.637 44.2742C305.811 43.5012 304.167 42.3549 302.811 40.909C299.905 37.9166 298.453 34.1009 298.453 29.4618C298.453 24.779 299.873 20.9523 302.713 17.9817C305.554 15.011 309.12 13.5262 313.413 13.5274C315.315 13.4979 317.203 13.871 318.951 14.6221C320.7 15.3732 322.27 16.4854 323.559 17.8857C326.333 20.7911 327.72 24.5418 327.721 29.138L327.071 31.0876ZM313.411 19.38C309.161 19.38 306.451 21.3747 305.281 25.3642H320.891C320.805 24.5266 320.547 23.7159 320.132 22.9828C319.718 22.2497 319.157 21.61 318.484 21.1038C317.047 19.9528 315.252 19.3427 313.411 19.38Z" fill="#0D2B3A"/>
<path d="M340.729 35.9657L346.583 18.731H353.087L358.941 35.9657L364.209 14.177H370.649L362.193 44.7465H356.014L349.834 27.1202L343.655 44.7465H337.477L329.021 14.177H335.461L340.729 35.9657Z" fill="#0D2B3A"/>
<path d="M403.819 14.177V44.7465H397.965L397.314 42.1452L396.989 41.8196L396.664 42.1452C394.494 44.3136 391.676 45.3976 388.209 45.3971C386.158 45.4358 384.12 45.0579 382.22 44.2864C380.319 43.5149 378.595 42.3658 377.152 40.9086C374.116 37.9162 372.598 34.1005 372.599 29.4614C372.599 24.8223 374.117 21.0064 377.152 18.0138C378.595 16.5567 380.319 15.4076 382.22 14.6361C384.12 13.8646 386.158 13.4867 388.209 13.5253C391.677 13.5253 394.496 14.6093 396.664 16.7772L396.989 17.1028L397.314 16.7772L397.965 14.1759L403.819 14.177ZM395.299 36.6163C397.077 34.6645 398.032 32.1012 397.965 29.4617C398.032 26.8223 397.077 24.259 395.299 22.3071C394.452 21.3566 393.408 20.6023 392.24 20.0968C391.072 19.5912 389.807 19.3466 388.534 19.3799C385.542 19.3799 383.211 20.3339 381.542 22.242C379.874 24.15 379.039 26.5566 379.038 29.4617C379.038 32.3668 379.873 34.7733 381.542 36.6811C383.212 38.5889 385.543 39.5429 388.534 39.5432C389.807 39.5765 391.071 39.332 392.24 38.8265C393.408 38.321 394.452 37.5667 395.299 36.6163Z" fill="#0D2B3A"/>
<path d="M461.707 1.16846V44.7465H455.853L455.202 42.1452L454.877 41.8197L454.552 42.1452C452.383 44.3137 449.565 45.3977 446.096 45.3972C444.045 45.4359 442.008 45.058 440.108 44.2865C438.207 43.515 436.483 42.3659 435.039 40.9087C432.004 37.9163 430.486 34.1006 430.486 29.4615C430.487 24.8224 432.004 21.0065 435.039 18.0139C436.483 16.5568 438.207 15.4077 440.108 14.6362C442.008 13.8647 444.045 13.4868 446.096 13.5254C449.565 13.5254 452.383 14.6094 454.552 16.7773L454.877 17.1028L455.202 16.7773V1.16846H461.707ZM453.186 36.6164C454.965 34.6646 455.92 32.1013 455.853 29.4618C455.92 26.8223 454.965 24.259 453.186 22.3072C452.34 21.3568 451.296 20.6025 450.127 20.097C448.959 19.5914 447.695 19.3467 446.422 19.38C443.43 19.38 441.099 20.334 439.43 22.2421C437.761 24.1501 436.926 26.5567 436.926 29.4618C436.926 32.3669 437.761 34.7734 439.43 36.6812C441.099 38.589 443.43 39.543 446.422 39.5432C447.695 39.5766 448.959 39.332 450.127 38.8265C451.296 38.321 452.34 37.5668 453.186 36.6164Z" fill="#0D2B3A"/>
<path d="M486.78 42.6327C484.633 44.4761 482.021 45.3976 478.943 45.3971C475.865 45.3967 473.253 44.5727 471.105 42.9253C468.962 41.2836 467.475 38.9313 466.91 36.2912L472.764 34.0147C472.894 35.577 473.615 37.0307 474.78 38.0798C475.911 39.1272 477.402 39.6981 478.943 39.6734C480.504 39.6734 481.707 39.3157 482.553 38.6002C482.951 38.2868 483.272 37.8865 483.492 37.4298C483.711 36.9732 483.824 36.4724 483.82 35.9657C483.82 34.1883 482.52 33.0827 479.918 32.6489C479.05 32.4758 477.966 32.2372 476.666 31.9332C473.977 31.2401 471.841 30.1019 470.258 28.5184C469.482 27.7515 468.87 26.8336 468.462 25.8212C468.053 24.8088 467.857 23.7235 467.884 22.6323C467.845 21.3452 468.121 20.0681 468.688 18.912C469.254 17.7558 470.095 16.7555 471.136 15.9981C473.281 14.3577 475.916 13.4871 478.616 13.5263C481.308 13.4826 483.93 14.3793 486.031 16.0618C487.055 16.8498 487.906 17.8393 488.533 18.9692C489.159 20.0991 489.548 21.3454 489.674 22.6312H483.169C483.166 22.1542 483.045 21.6854 482.818 21.2658C482.591 20.8462 482.265 20.4887 481.867 20.2245C480.902 19.5882 479.771 19.249 478.615 19.249C477.459 19.249 476.328 19.5882 475.363 20.2245C474.966 20.4885 474.639 20.846 474.412 21.2656C474.185 21.6852 474.065 22.1542 474.061 22.6312C474.061 24.4522 475.362 25.6229 477.964 26.1433L481.216 26.7943C483.904 27.4017 486.039 28.4638 487.623 29.9808C489.207 31.4978 489.998 33.4924 489.997 35.9646C489.999 38.5673 488.927 40.79 486.78 42.6327Z" fill="#0D2B3A"/>
<path d="M132.824 17.429L132.499 17.7541L132.174 17.429L131.523 14.177H125.669V44.7465H132.174V26.9252C132.236 25.0704 133.031 23.3159 134.385 22.0467C135.033 21.3975 135.804 20.8846 136.652 20.5383C137.501 20.1921 138.411 20.0194 139.328 20.0306H139.979V14.177C136.461 14.177 133.914 16.3116 132.939 17.2827C132.901 17.332 132.862 17.3786 132.824 17.429Z" fill="#0D2B3A"/>
<path d="M117.8 4.59473H111.426V10.9688H117.8V4.59473Z" fill="#0D2B3A"/>
<path d="M174.624 4.59473H168.25V10.9688H174.624V4.59473Z" fill="#0D2B3A"/>
<path d="M158.428 38.8925C157.986 38.9126 157.545 38.8422 157.131 38.6857C156.717 38.5291 156.34 38.2897 156.022 37.9821C155.718 37.6745 155.481 37.3081 155.324 36.9054C155.168 36.5027 155.095 36.0723 155.111 35.6405V20.0306H161.68V14.1769H155.112V4.59473H153.875L148.736 9.7343V14.1783H144.531V20.0306H148.737V35.6405C148.737 38.5899 149.593 40.8447 151.307 42.4049C153.02 43.965 155.502 44.7455 158.754 44.7464L162.331 44.0954V38.2425L158.428 38.8925Z" fill="#0D2B3A"/>
<path d="M429.185 14.177C428.166 13.7116 427.053 13.4888 425.933 13.526C423.114 13.526 420.729 14.8269 418.778 17.4286L418.454 17.7538L418.128 17.4286L417.477 14.1766H411.624V44.7461H418.127V26.9252C418.19 25.0703 418.985 23.3159 420.339 22.0467C420.987 21.3974 421.758 20.8845 422.607 20.5383C423.456 20.192 424.366 20.0194 425.282 20.0306H427.566L429.185 14.177Z" fill="#0D2B3A"/>
</g>
<defs>
<clipPath id="clip0_31_1577">
<rect width="490" height="52.0707" fill="white"/>
</clipPath>
</defs>
</svg>
