<svg width="120" height="120" viewBox="0 0 120 120" fill="none" xmlns="http://www.w3.org/2000/svg">
<g clip-path="url(#clip0_31_1571)">
<path d="M21.0469 0H98.9531C110.578 0 120 9.42187 120 21.0469V98.9531C120 110.578 110.578 120 98.9531 120H21.0469C9.42187 120 0 110.578 0 98.9531V21.0469C0 9.42187 9.42187 0 21.0469 0Z" fill="#00E8D1"/>
<path d="M83.9063 61.3827C86.3673 61.3827 88.7344 61.0313 90.9844 60.375V51.3281C88.8281 52.3359 86.4375 52.8984 83.9063 52.8984C79.2891 52.8984 75.0703 51.0469 72.0469 48L78.0469 42C67.336 31.289 52.5234 24.6562 36.1875 24.6562C33.7734 24.6562 31.3828 24.7969 29.0391 25.078V33.6327C31.3828 33.3047 33.7734 33.1172 36.1875 33.1172C50.1563 33.1172 62.836 38.789 72.0234 47.9766L72.0469 48L66.0703 53.9766C58.4297 46.3359 47.8594 41.6016 36.1875 41.6016C33.75 41.6016 31.3594 41.8125 29.0391 42.2109V50.8359C31.336 50.3437 33.75 50.0624 36.1875 50.0624C45.4923 50.0624 53.9297 53.8593 60.0469 59.9766L59.7891 60.2343L54.0234 66C49.4531 61.4297 43.1484 58.6172 36.1875 58.6172C33.7031 58.6172 31.2891 58.9687 29.0391 59.6484V68.6953C31.2187 67.664 33.6328 67.0781 36.1875 67.0781C40.8047 67.0781 45 68.9766 48.0234 72L47.7423 72.2813L42.0234 78C52.7344 88.7109 67.5469 95.3437 83.8828 95.3437C86.2734 95.3437 88.6407 95.2031 90.961 94.9219V86.3671C88.6407 86.6953 86.2734 86.8593 83.8828 86.8593C69.8907 86.8593 57.1875 81.1874 48 72L48.2813 71.7187L54 66C61.6407 73.6406 72.211 78.375 83.8828 78.375C86.2969 78.375 88.6641 78.164 90.961 77.789V69.164C88.6641 69.6562 86.2969 69.914 83.8828 69.914C74.5781 69.914 66.1407 66.1172 60.0234 60L66.0469 53.9766C70.6173 58.5469 76.9219 61.3827 83.9063 61.3827Z" fill="white"/>
<path opacity="0.1" d="M66.0469 53.9766C67.7577 55.6874 69.703 57.1406 71.8359 58.3126L78.2343 51.914C75.8672 51.0703 73.7577 49.7344 72.0234 48L66.0469 53.9766Z" fill="#0D2B3A"/>
<path opacity="0.1" d="M48.0234 72.0234L42.0469 78C43.7343 79.6875 45.539 81.2813 47.414 82.7578L53.4609 76.711C51.539 75.2813 49.7109 73.711 48.0234 72.0234Z" fill="#0D2B3A"/>
<path opacity="0.1" d="M60.0234 60L54 66.0234C55.6876 67.711 57.539 69.2813 59.5078 70.664L65.625 64.5469C63.6094 63.211 61.7344 61.711 60.0234 60Z" fill="#0D2B3A"/>
</g>
<defs>
<clipPath id="clip0_31_1571">
<rect width="120" height="120" rx="40" fill="white"/>
</clipPath>
</defs>
</svg>
