<svg fill="none" height="120" viewBox="0 0 120 120" width="120" xmlns="http://www.w3.org/2000/svg" xmlns:xlink="http://www.w3.org/1999/xlink"><clipPath id="a"><path d="m29 25h62v70h-62z"/></clipPath><path d="m0 0h120v120h-120z" fill="#1ee6c6"/><g clip-path="url(#a)"><path d="m83.9091 61.3593c2.3998.0013 4.7876-.3366 7.0909-1.0033v-8.9536c-3.1194 1.4435-6.6118 1.9031-10.0039 1.3165-3.3922-.5866-6.5202-2.191-8.9602-4.5958l6.0128-5.9509c-5.4946-5.4524-12.0238-9.7763-19.2123-12.7232-7.1885-2.947-14.8946-4.4589-22.6754-4.449-2.3935.0006-4.7848.1435-7.161.428v8.469c7.7917-1.1021 15.7356-.3921 23.2018 2.0734 7.4662 2.4656 14.2492 6.619 19.8111 12.1309l.0234.022-5.98 5.9185c-4.7855-4.7329-10.6479-8.2613-17.0955-10.2893s-13.2925-2.4966-19.9608-1.3664v8.5505c5.5259-1.187 11.2648-.979 16.6882.6049s10.357 4.4927 14.3466 8.4587l-.2516.2488-5.769 5.7095c-3.2128-3.1775-7.2317-5.4391-11.6337-6.5469s-9.0243-1.0207-13.3805.252v8.9629c3.1227-1.463 6.6263-1.9338 10.0301-1.3479s6.541 2.1999 8.9812 4.6204l-.2772.2742-5.7127 5.655c5.4946 5.4524 12.0238 9.7763 19.2123 12.7233 7.1885 2.9469 14.8946 4.4588 22.6754 4.4488 2.37-.0006 4.7379-.1415 7.0909-.4217v-8.4676c-7.788 1.0929-15.7261.378-23.1868-2.0884-7.4606-2.4664-14.2394-6.6165-19.8003-12.1224l.2779-.2753 5.7234-5.6645c3.9217 3.8911 8.5817 6.9769 13.7121 9.0799 5.1304 2.1031 10.6302 3.182 16.1833 3.1748 2.3761-.0001 4.7481-.1976 7.0909-.5905v-8.5481c-5.5166 1.175-11.2429.9597-16.6535-.6262-5.4105-1.5859-10.3318-4.4915-14.3122-8.4501l6.0215-5.9593c2.3419 2.3237 5.1247 4.1665 8.1885 5.4224s6.3481 1.9003 9.6643 1.896z" fill="#fff"/><g fill="#77858c"><path d="m66.0566 54.0408c1.7163 1.699 3.6703 3.1451 5.8023 4.2938l6.3958-6.3297c-2.3386-.8207-4.463-2.1469-6.2188-3.8821z" opacity=".25"/><path d="m48.013 71.9002-5.9915 5.9279c1.695 1.6773 3.4908 3.2518 5.3775 4.7148l6.0436-5.9813c-1.9186-1.4252-3.733-2.9829-5.4296-4.6614z" opacity=".25"/><path d="m60.035 60.0001-6.0213 5.9593c1.6995 1.6817 3.5401 3.2176 5.502 4.5914l6.1276-6.0645c-2.024-1.2956-3.9039-2.7993-5.6083-4.4862z" opacity=".25"/></g></g></svg>