<svg fill="none" height="120" viewBox="0 0 120 120" width="120" xmlns="http://www.w3.org/2000/svg" xmlns:xlink="http://www.w3.org/1999/xlink"><linearGradient id="a" gradientUnits="userSpaceOnUse" x1="0" x2="120" y1="60" y2="60"><stop offset="0" stop-color="#01d2f7"/><stop offset="1" stop-color="#1e97ff"/></linearGradient><path d="m0 0h120v120h-120z" fill="url(#a)"/><path d="m100.552 69.1713c0-9.5028-7.2925-17.4586-16.5743-18.453-1.326-4.7516-4.1989-9.1716-8.0663-12.3758-4.4786-3.6999-10.1025-5.7307-15.9116-5.7458-5.815-.018-11.4498 2.0167-15.9116 5.7458-3.8674 3.2044-6.63 7.5138-8.0663 12.3757-9.2818.9945-16.5746 8.84-16.5746 18.453 0 .884.11 7.4033 4.9724 12.4862 3.7569 3.8674 9.0608 5.7459 16.0221 5.7459 6.63 0 13.1492-1.105 19.4475-3.4254 1.989.663 3.9779 1.326 5.9669 1.768 4.3726 1.0946 8.8625 1.6512 13.37 1.6575 6.9613 0 12.2652-1.989 16.0221-5.7459 5.1937-5.0829 5.3037-11.4917 5.3037-12.4862zm-4.9721 0s.1105 5.1933-3.6464 8.95c-2.7624 2.7624-6.8508 4.1989-12.2652 4.1989-9.2818 0-16.6851-2.5415-21.326-4.6409-4.42-1.9889-7.1823-3.9779-7.8453-4.53-.11 0-.11-.1105-.11-.221v-10.8288c0-.221.11-.3315.3315-.442l9.5028-4.8619c.0612-.0534.1397-.0829.221-.0829.0812 0 .1597.0295.221.0829l9.5028 4.8619c.221.1105.3315.221.3315.442v10.6072c-.019.1156-.0561.2275-.11.3315-1.4834 1.09-3.0334 2.0864-4.6409 2.9834 2.308.7193 4.6742 1.2369 7.0718 1.547.5525-.442.884-.663.884-.663.5932-.5264 1.0675-1.1731 1.3912-1.8971s.4894-1.5087.4862-2.3018v-10.6072c0-2.0995-1.2155-3.9779-2.9834-4.9724l-9.5028-4.8619c-.7928-.3818-1.6615-.5801-2.5415-.5801-.8799 0-1.7486.1983-2.5414.5801l-9.5028 4.8615c-.9073.4734-1.666 1.1883-2.1925 2.0658-.5265.8774-.8002 1.8833-.7909 2.9066v10.6076c.0093.7912.1807 1.572.5038 2.2942s.791 1.3705 1.3746 1.9047c.1105.1105 2.21 1.768 6.0773 3.8674-4.0884.9945-8.1768 1.4365-12.3757 1.4365-5.4144 0-9.6133-1.4365-12.2652-4.1989-3.6464-3.7569-3.6464-8.84-3.6464-8.95v-.11c0-7.4033 6.0773-13.4807 13.4807-13.4807h2.0994l.442-2.0994c.9028-4.4437 3.2773-8.4534 6.74-11.3812 3.5359-2.9834 8.0663-4.53 12.5967-4.53s9.0608 1.6575 12.5967 4.53 5.8563 6.9613 6.74 11.3812l.442 2.0994h2.0994c7.0719.221 13.1492 6.1879 13.1492 13.7017z" fill="#fff"/></svg>