<svg fill="none" height="120" viewBox="0 0 120 120" width="120" xmlns="http://www.w3.org/2000/svg" xmlns:xlink="http://www.w3.org/1999/xlink"><linearGradient id="a" gradientUnits="userSpaceOnUse" x1="60" x2="60" y1="0" y2="120"><stop offset="0" stop-color="#131835"/><stop offset=".505208" stop-color="#0973ad"/><stop offset="1" stop-color="#95c6e3"/></linearGradient><path d="m0 0h120v120h-120z" fill="url(#a)"/><g fill="#fff"><path clip-rule="evenodd" d="m21 54.59c0 17.2747 12.5412 31.5899 30.7561 31.5899 18.1168 0 30.6579-14.3152 30.6579-31.5899 0-18.3376-12.3122-31.59-30.6579-31.59-18.4439 0-30.7561 13.2524-30.7561 31.59zm11.8381 0c0-11.4767 6.9818-22.597 18.918-22.597 11.838 0 18.8199 11.1203 18.8199 22.597 0 10.767-5.7882 22.5986-18.8199 22.5986-13.1298 0-18.918-11.8316-18.918-22.5986z" fill-rule="evenodd"/><path d="m99.0598 98v-4.212h-10.906c4.3657-4.2872 10.0558-9.4933 10.0558-15.1589 0-5.2454-3.2865-7.8092-8.3717-7.8092-2.7142 0-5.5102.69-7.9302 1.9147l.4251 4.4409c1.7496-1.1495 3.9079-2.1453 6.1643-2.1453 2.1747 0 4.3657 1.1495 4.3657 3.5989 0 4.9003-9.0747 12.4806-11.5601 14.8924v4.4785z"/></g></svg>