<svg height="40.89" viewBox="0 0 40 40.89" width="40" xmlns="http://www.w3.org/2000/svg"><g fill="#0019a5" fill-rule="evenodd"><path d="m6.071 16.894c0-6.117 3.582-12.045 9.713-12.045 6.071 0 9.652 5.928 9.652 12.045 0 5.739-2.973 12.045-9.652 12.045-6.737 0-9.713-6.306-9.713-12.045m-6.071 0c0 9.206 6.435 16.838 15.784 16.838 9.288 0 15.724-7.631 15.724-16.838 0-9.775-6.308-16.838-15.724-16.838-9.47 0-15.784 7.063-15.784 16.838" transform="translate(0 -.056)"/><path d="m35.29 37.019v-2.245h-5.6c2.24-2.284 5.166-5.06 5.166-8.079 0-2.8-1.688-4.163-4.3-4.163a8.85 8.85 0 0 0 -4.066 1.021l.216 2.367a5.8 5.8 0 0 1 3.162-1.143 2.007 2.007 0 0 1 2.24 1.919c0 2.611-4.655 6.651-5.932 7.936v2.387z" transform="translate(4.71 3.87)"/></g></svg>