<svg height="125.267" viewBox="0 0 130.377 125.267" width="130.377" xmlns="http://www.w3.org/2000/svg"><g fill="#fff"><path d="m188.228 443.376c0 28.853 20.947 52.763 51.37 52.763 30.259 0 51.206-23.91 51.206-52.763 0-30.628-20.564-52.762-51.206-52.762-30.805 0-51.37 22.135-51.37 52.762m19.772 0c0-19.169 11.661-37.742 31.6-37.742 19.772 0 31.434 18.573 31.434 37.742 0 17.984-9.668 37.745-31.434 37.745-21.93 0-31.6-19.761-31.6-37.745" fill-rule="evenodd" transform="translate(-188.228 -390.614)"/><path d="m583.091 725.62v-7.035h-18.215c7.292-7.161 16.8-15.856 16.8-25.319 0-8.761-5.489-13.043-13.983-13.043a29.813 29.813 0 0 0 -13.245 3.2l.71 7.417c2.922-1.92 6.527-3.583 10.3-3.583 3.632 0 7.292 1.92 7.292 6.011 0 8.185-15.157 20.846-19.308 24.874v7.48h29.658" transform="translate(-452.714 -600.353)"/></g></svg>