<svg fill="none" height="24" viewBox="0 0 24 24" width="24" xmlns="http://www.w3.org/2000/svg"><g fill="#212121"><path d="m22 15.94c0 2.79-2.24 5.05-5.03 5.06h-.01-9.91c-2.78 0-5.05-2.25-5.05-5.04v-.01s.006-4.426.014-6.652c.001-.418.481-.652.808-.392 2.376 1.885 6.625 5.322 6.678 5.367.71.569 1.61.89 2.53.89s1.82-.321 2.53-.901c.053-.035 4.207-3.369 6.619-5.285.328-.261.81-.027.811.39.01 2.209.01 6.573.01 6.573z" opacity=".4"/><path d="m21.4759 5.67351c-.866-1.632-2.57-2.674-4.446-2.674h-9.98002c-1.876 0-3.58 1.042-4.446 2.674-.194.365-.102.82.221 1.078l7.42502 5.93899c.52.42 1.15.629 1.78.629h.01.01c.63 0 1.26-.209 1.78-.629l7.425-5.93899c.323-.258.415-.713.221-1.078z"/></g></svg>